<?xml version="1.0" encoding="utf-8"?>
<!-- Generator: Adobe Illustrator 23.0.1, SVG Export Plug-In . SVG Version: 6.00 Build 0)  -->
<svg version="1.1" id="Layer_1" xmlns="http://www.w3.org/2000/svg" xmlns:xlink="http://www.w3.org/1999/xlink" x="0px" y="0px"
	 viewBox="0 0 82 82" style="enable-background:new 0 0 82 82;" xml:space="preserve">
<style type="text/css">
	.st0{fill:#DB0011;}
</style>
<g>
	<path d="M26.3,38.6c0.4,0,0.8-0.4,0.8-0.8v-4.1c0-0.6,0.3-1.3,0.8-1.7c3.7-3,7.7-5,8.4-5.4c0.4-0.2,0.6-0.5,0.6-0.9v-5.8
		c0-0.3-0.1-0.5-0.4-0.7c-0.5-0.3-0.9-1-0.9-1.6v-6c0-2.6,2.1-4.6,4.6-4.6h1.3c2.6,0,4.6,2.1,4.6,4.6v6c0,0.6-0.3,1.2-0.9,1.6
		c-0.2,0.1-0.4,0.4-0.4,0.7v5.8c0,0.4,0.2,0.8,0.6,0.9c0.2,0.1,4.5,2.2,8.4,5.4c0.5,0.4,0.8,1,0.8,1.7v4.1c0,0.4,0.4,0.8,0.8,0.8
		s0.8-0.4,0.8-0.8v-4.1c0-1.1-0.5-2.2-1.4-2.9l0,0c-3.5-2.9-7.3-4.9-8.3-5.4l-0.1-0.1v-5.1l0.1-0.1c0.7-0.7,1.1-1.6,1.1-2.6v-6
		c0-3.4-2.8-6.2-6.2-6.2h-1.3c-3.4,0-6.2,2.8-6.2,6.2v6c0,1,0.4,1.9,1.1,2.6l0.1,0.1v5.1l-0.1,0.1c-1.1,0.5-4.9,2.5-8.3,5.4
		c-0.9,0.7-1.4,1.8-1.4,2.9v4.1C25.5,38.2,25.9,38.6,26.3,38.6z"/>
	<path d="M71.8,63.5l-0.1-0.1v-5.1l0.1-0.1c0.7-0.7,1.1-1.6,1.1-2.6v-6c0-3.4-2.8-6.2-6.2-6.2h-1.3c-3.4,0-6.2,2.8-6.2,6.2v6
		c0,1,0.4,1.9,1.1,2.6l0.1,0.1v5.1l-0.1,0.1c-1.1,0.5-4.9,2.5-8.3,5.4c-0.9,0.7-1.4,1.8-1.4,2.9v4.1c0,0.4,0.4,0.8,0.8,0.8
		c0.4,0,0.8-0.4,0.8-0.8v-4.1c0-0.6,0.3-1.3,0.8-1.7c3.7-3,7.7-5,8.4-5.4c0.4-0.2,0.6-0.6,0.6-1v-5.8c0-0.3-0.1-0.5-0.4-0.7
		c-0.5-0.3-0.9-1-0.9-1.6v-6c0-2.6,2.1-4.6,4.6-4.6h1.3c2.6,0,4.6,2.1,4.6,4.6v6c0,0.6-0.3,1.2-0.9,1.6c-0.2,0.1-0.4,0.4-0.4,0.7
		v5.8c0,0.4,0.2,0.8,0.6,0.9c0.2,0.1,4.5,2.2,8.4,5.4c0.5,0.4,0.8,1,0.8,1.7v4.1c0,0.4,0.4,0.8,0.8,0.8c0.4,0,0.8-0.4,0.8-0.8v-4.1
		c0-1.1-0.5-2.2-1.4-2.9C76.7,66,72.9,64,71.8,63.5z"/>
	<path d="M21.7,63.5l-0.1-0.1v-5.1l0.1-0.1c0.7-0.7,1.1-1.6,1.1-2.6v-6c0-3.4-2.8-6.2-6.2-6.2h-1.3c-3.4,0-6.2,2.8-6.2,6.2v6
		c0,1,0.4,1.9,1.1,2.6l0.1,0.1v5.1l-0.1,0.1c-1.4,0.7-5,2.6-8.3,5.4c-0.9,0.7-1.4,1.8-1.4,2.9v4.1c0,0.4,0.4,0.8,0.8,0.8
		c0.4,0,0.8-0.4,0.8-0.8v-4.1c0-0.6,0.3-1.3,0.8-1.7c3.7-3,7.7-5,8.4-5.4c0.4-0.2,0.6-0.6,0.6-1v-5.8c0-0.3-0.1-0.5-0.4-0.7
		c-0.5-0.3-0.9-1-0.9-1.6v-6c0-2.6,2.1-4.6,4.6-4.6h1.3c2.6,0,4.6,2.1,4.6,4.6v6c0,0.6-0.3,1.2-0.9,1.6c-0.2,0.1-0.4,0.4-0.4,0.7
		v5.8c0,0.4,0.2,0.8,0.6,0.9c0.2,0.1,4.5,2.2,8.4,5.4c0.5,0.4,0.8,1,0.8,1.7v4.1c0,0.4,0.4,0.8,0.8,0.8s0.8-0.4,0.8-0.8v-4.1
		c0-1.1-0.5-2.2-1.4-2.9C26.6,66,22.8,64,21.7,63.5z"/>
	<path class="st0" d="M52,57.2c0.1-0.2,0.1-0.4,0.1-0.6c-0.1-0.2-0.2-0.4-0.4-0.5l-9.8-5.7V39.1c0-0.4-0.4-0.8-0.8-0.8
		c-0.4,0-0.8,0.4-0.8,0.8v11.3l-0.1,0.1l-9.7,5.6c-0.4,0.2-0.5,0.7-0.3,1.1c0.2,0.4,0.6,0.5,1.1,0.3l9.8-5.7l9.8,5.7
		C51.3,57.7,51.8,57.6,52,57.2z"/>
</g>
</svg>
