<?xml version="1.0" encoding="utf-8"?>
<!-- Generator: Adobe Illustrator 23.0.1, SVG Export Plug-In . SVG Version: 6.00 Build 0)  -->
<svg version="1.1" id="Layer_1" xmlns="http://www.w3.org/2000/svg" xmlns:xlink="http://www.w3.org/1999/xlink" x="0px" y="0px"
	 viewBox="0 0 82 82" style="enable-background:new 0 0 82 82;" xml:space="preserve">
<style type="text/css">
	.st0{fill:#DB0011;}
</style>
<g>
	<path d="M81.3,68.7l-4.6-4.6c-0.1-6.2-5.2-11.3-11.4-11.4l-4.3-4.3c-0.1-0.1-0.3-0.2-0.5-0.2c0,0,0,0,0,0c-0.2,0-0.4,0.1-0.5,0.2
		l-7.3,7.3c-0.1,0.1-0.2,0.3-0.2,0.5c0,0.2,0.1,0.4,0.2,0.5l1.8,1.8l-4.1,4.1C40.5,54.9,27,41.4,19.4,31.8l4.1-4.1l1.8,1.8
		c0.1,0.1,0.4,0.2,0.6,0.2c0.2,0,0.4-0.1,0.5-0.2l7.3-7.3c0.1-0.1,0.2-0.3,0.2-0.5c0-0.2-0.1-0.4-0.2-0.5l-4.5-4.5
		C29.1,10.2,24,5.1,17.6,5l-4.3-4.3c-0.1-0.1-0.3-0.2-0.6-0.2c-0.2,0-0.4,0.1-0.5,0.2L4.9,8C4.8,8.1,4.7,8.3,4.7,8.5
		c0,0.2,0.1,0.4,0.2,0.5l1.8,1.8c-2,3.2-4.8,8-5.2,8.4c-1.1,1.1-1.3,3-0.4,4.3c13.3,21,36.4,44,57.4,57.4c0.6,0.4,1.2,0.5,1.9,0.5
		c0.9,0,1.8-0.3,2.4-1c0.5-0.3,5-3.2,8.4-5.3l1.8,1.8c0.1,0.1,0.4,0.2,0.6,0.2c0.2,0,0.4-0.1,0.5-0.2l7.3-7.3
		c0.1-0.1,0.2-0.3,0.2-0.5C81.5,69,81.4,68.8,81.3,68.7z M19.3,6.7c4.2,0.7,7.5,4,8.2,8.2L19.3,6.7z M66.9,54.3
		c4.1,0.8,7.3,4,8.1,8.1L66.9,54.3z M63.2,66.2c-0.1,0.1-0.2,0.3-0.2,0.6c0,0.2,0.1,0.4,0.2,0.5l6.9,6.9c-8,5-8.2,5.2-8.3,5.2
		c-0.6,0.6-1.7,0.8-2.5,0.3c-20.8-13.1-43.7-36-57-56.9C1.9,22,2,21,2.6,20.3c0.1-0.1,0.2-0.2,5.2-8.4l0.5,0.5
		c0.1,0.1,0.3,0.2,0.5,0.2c0.2,0,0.4-0.1,0.5-0.2c0.1-0.1,0.2-0.3,0.2-0.6c0-0.2-0.1-0.4-0.2-0.5L6.5,8.6l6.2-6.2L32,21.6l-6.2,6.2
		l-9.1-9c-0.1-0.1-0.3-0.2-0.5-0.2c0,0,0,0,0,0c-0.2,0-0.4,0.1-0.5,0.2c-0.1,0.1-0.2,0.3-0.2,0.6c0,0.2,0.1,0.4,0.2,0.5l6.7,6.7
		l-4.6,4.6c-0.3,0.3-0.3,0.7-0.1,1c7.7,9.9,22.1,24.3,32,32.1c0.3,0.2,0.7,0.2,1-0.1l4.6-4.6l0.6,0.6c0.1,0.1,0.3,0.2,0.5,0.2
		c0.2,0,0.4-0.1,0.5-0.2c0.1-0.1,0.2-0.3,0.2-0.6c0-0.2-0.1-0.4-0.2-0.5l-2.9-2.9l6.2-6.2l19.3,19.3l-6.2,6.2l-9.2-9.2
		c-0.1-0.1-0.3-0.2-0.5-0.2c0,0,0,0,0,0C63.5,66,63.3,66.1,63.2,66.2z"/>
	<path class="st0" d="M41,10.1c17,0,30.8,13.8,30.8,30.8c0,0.4,0.3,0.8,0.8,0.8s0.8-0.3,0.8-0.8C73.3,23.1,58.8,8.6,41,8.6
		c-0.4,0-0.8,0.3-0.8,0.8C40.2,9.8,40.6,10.1,41,10.1z"/>
	<path class="st0" d="M41,16.5c13.5,0,24.4,11,24.4,24.4c0,0.4,0.3,0.8,0.8,0.8s0.8-0.3,0.8-0.8C67,26.6,55.3,15,41,15
		c-0.4,0-0.8,0.3-0.8,0.8C40.2,16.2,40.6,16.5,41,16.5z"/>
	<path class="st0" d="M60,41.7c0.4,0,0.8-0.3,0.8-0.8c0-10.9-8.8-19.7-19.7-19.7c-0.4,0-0.8,0.3-0.8,0.8c0,0.2,0.1,0.4,0.2,0.5
		c0.1,0.1,0.3,0.2,0.6,0.2c10,0,18.2,8.2,18.2,18.2C59.2,41.3,59.5,41.7,60,41.7z"/>
	<path class="st0" d="M41,27.6c-0.4,0-0.8,0.3-0.8,0.8s0.3,0.8,0.8,0.8c6.5,0,11.8,5.3,11.8,11.8c0,0.4,0.3,0.8,0.8,0.8
		c0.4,0,0.8-0.3,0.8-0.8C54.4,33.5,48.4,27.6,41,27.6z"/>
	<path class="st0" d="M41,35.4c3,0,5.5,2.5,5.5,5.5c0,0.4,0.3,0.8,0.8,0.8c0.4,0,0.8-0.3,0.8-0.8c0-3.9-3.1-7-7-7
		c-0.4,0-0.8,0.3-0.8,0.8C40.2,35.1,40.6,35.4,41,35.4z"/>
</g>
</svg>
