<?xml version="1.0" encoding="utf-8"?>
<!-- Generator: Adobe Illustrator 23.0.1, SVG Export Plug-In . SVG Version: 6.00 Build 0)  -->
<svg version="1.1" id="Layer_1" xmlns="http://www.w3.org/2000/svg" xmlns:xlink="http://www.w3.org/1999/xlink" x="0px" y="0px"
	 viewBox="0 0 82 82" style="enable-background:new 0 0 82 82;" xml:space="preserve">
<style type="text/css">
	.st0{fill:#DB0011;}
</style>
<g>
	<path d="M43.9,59c-0.9-0.9-2.4-0.9-3.2,0l-3.7,3.7c-0.9,0.9-2.1,1.4-3.4,1.4c-1.3,0-2.5-0.5-3.4-1.4L19.3,51.8
		c-0.9-0.9-1.4-2.1-1.4-3.4s0.5-2.5,1.4-3.4l3.7-3.7c0.4-0.4,0.7-1,0.7-1.6c0-0.6-0.2-1.2-0.7-1.6l-9.8-9.8c-0.4-0.4-1-0.7-1.6-0.7
		s-1.2,0.2-1.6,0.7l-4.3,4.3c-6.3,6.3-6.3,16.5,0,22.8l20.9,20.8c3,3,7.1,4.7,11.4,4.7s8.4-1.7,11.4-4.7l4.3-4.3
		c0.4-0.4,0.7-1,0.7-1.6s-0.2-1.2-0.7-1.6L43.9,59z M11.1,29.4c0.3-0.3,0.8-0.3,1.1,0l9.8,9.8c0.1,0.1,0.2,0.3,0.2,0.5
		c0,0.2-0.1,0.4-0.2,0.5L19.2,43L8.3,32.2L11.1,29.4z M48.2,75.3c-2.8,2.8-6.4,4.3-10.3,4.3s-7.6-1.5-10.3-4.3L6.7,54.4
		C4,51.7,2.4,48,2.4,44.1c0-3.9,1.5-7.6,4.3-10.3l0.5-0.5l10.9,10.9l-0.3,0.3c-1,1.1-1.5,2.5-1.5,4.1c0,1.7,0.7,3.3,1.8,4.4
		l10.9,10.9c1.2,1.2,2.8,1.8,4.4,1.8c1.5,0,2.9-0.5,4-1.5l0.3-0.3l10.9,10.9L48.2,75.3z M52.6,70.9l-2.7,2.7L39,62.8l2.7-2.7
		c0.3-0.3,0.8-0.3,1.1,0l9.8,9.8c0.1,0.1,0.2,0.3,0.2,0.5S52.7,70.8,52.6,70.9z"/>
	<path class="st0" d="M55.4,24.1c-0.3-3.3-2.8-6-6.2-6.6l-0.6-0.1v-2.8h-1.2v2.8l-0.6,0.1c-2,0.3-3.7,1.4-4.8,3.1
		c-1.1,1.6-1.6,3.6-1.2,5.6c0.6,3.6,3.7,6.2,7.3,6.2c3.5,0,6.3,2.8,6.3,6.3S51.6,45,48.1,45c-3.2,0-5.8-2.4-6.2-5.5h-1.2
		c0.3,3.3,2.8,6,6.2,6.6l0.6,0.1V49h1.2v-2.8l0.6-0.1c4.1-0.7,6.8-4.6,6.1-8.7c-0.6-3.6-3.7-6.2-7.3-6.2c-3.5,0-6.3-2.8-6.3-6.3
		s2.8-6.3,6.3-6.3c3.2,0,5.8,2.4,6.2,5.5C54.3,24.1,55.4,24.1,55.4,24.1z"/>
	<path d="M70.9,11.1C64.4,4.5,55.6,0.9,46.4,0.9c-14.9,0-28.1,9.5-32.9,23.6c-0.1,0.2-0.1,0.4,0,0.6c0.1,0.2,0.2,0.3,0.4,0.4
		c0.2,0.1,0.4,0.1,0.6,0c0.2-0.1,0.3-0.2,0.4-0.4C19.5,11.5,32.1,2.4,46.4,2.4c18.3,0,33.2,14.9,33.2,33.2c0,14.2-9,26.8-22.4,31.4
		c-0.2,0.1-0.3,0.2-0.4,0.4c-0.1,0.2-0.1,0.4,0,0.6c0.1,0.4,0.6,0.6,1,0.5c14-4.8,23.4-18,23.4-32.8C81.1,26.4,77.5,17.6,70.9,11.1z
		"/>
</g>
</svg>
