<?xml version="1.0" encoding="utf-8"?>
<!-- Generator: Adobe Illustrator 23.0.1, SVG Export Plug-In . SVG Version: 6.00 Build 0)  -->
<svg version="1.1" id="Layer_1" xmlns="http://www.w3.org/2000/svg" xmlns:xlink="http://www.w3.org/1999/xlink" x="0px" y="0px"
	 viewBox="0 0 82 82" style="enable-background:new 0 0 82 82;" xml:space="preserve">
<style type="text/css">
	.st0{fill:#DB0011;}
</style>
<g>
	<path d="M77.6,6.9h-48c-2.2,0-3.9,1.8-3.9,3.9v12.4H4.4c-2.2,0-3.9,1.8-3.9,3.9v31.1c0,2.2,1.8,3.9,3.9,3.9h4.7v10.5
		c0,1,0.6,1.8,1.5,2.2c0.9,0.4,1.9,0.2,2.6-0.5l12.2-12.2h27.1c2.2,0,3.9-1.8,3.9-3.9V45.5l12.6,12.6c0.4,0.4,1,0.7,1.7,0.7
		c0.3,0,0.6-0.1,0.9-0.2c0.9-0.4,1.5-1.2,1.5-2.2V45.9h4.7c2.2,0,3.9-1.8,3.9-3.9V10.9C81.5,8.7,79.7,6.9,77.6,6.9z M54.7,58.3
		c0,1.3-1,2.3-2.3,2.3H25c-0.2,0-0.4,0.1-0.6,0.2L12,73.2c-0.1,0.1-0.3,0.2-0.5,0.2c-0.1,0-0.2,0-0.3-0.1c-0.3-0.1-0.5-0.4-0.5-0.7
		V61.4c0-0.4-0.4-0.8-0.8-0.8H4.4c-1.3,0-2.3-1-2.3-2.3V27.2c0-1.3,1-2.3,2.3-2.3h21.3v17.1c0,2.2,1.8,3.9,3.9,3.9h25.1V58.3z
		 M79.9,42c0,1.3-1,2.3-2.3,2.3h-5.5c-0.4,0-0.8,0.4-0.8,0.8v11.3c0,0.3-0.2,0.6-0.5,0.7c-0.1,0-0.2,0.1-0.3,0.1
		c-0.2,0-0.4-0.1-0.5-0.2L57.6,44.5c-0.2-0.2-0.4-0.2-0.6-0.2H29.6c-1.3,0-2.3-1-2.3-2.3V10.9c0-1.3,1-2.3,2.3-2.3h48
		c1.3,0,2.3,1,2.3,2.3V42z"/>
	<path class="st0" d="M39,21.3c-2.5,0-4.5,2-4.5,4.5c0,2.5,2,4.5,4.5,4.5c2.5,0,4.5-2,4.5-4.5C43.5,23.3,41.5,21.3,39,21.3z
		 M39,28.7c-1.6,0-2.9-1.3-2.9-2.9s1.3-2.9,2.9-2.9c1.6,0,2.9,1.3,2.9,2.9S40.6,28.7,39,28.7z"/>
	<path class="st0" d="M53.6,21.3c-2.5,0-4.5,2-4.5,4.5c0,2.5,2,4.5,4.5,4.5c2.5,0,4.5-2,4.5-4.5C58.1,23.3,56.1,21.3,53.6,21.3z
		 M53.6,28.7c-1.6,0-2.9-1.3-2.9-2.9s1.3-2.9,2.9-2.9c1.6,0,2.9,1.3,2.9,2.9S55.2,28.7,53.6,28.7z"/>
	<path class="st0" d="M68.2,21.3c-2.5,0-4.5,2-4.5,4.5c0,2.5,2,4.5,4.5,4.5c2.5,0,4.5-2,4.5-4.5C72.7,23.3,70.7,21.3,68.2,21.3z
		 M68.2,28.7c-1.6,0-2.9-1.3-2.9-2.9s1.3-2.9,2.9-2.9c1.6,0,2.9,1.3,2.9,2.9S69.8,28.7,68.2,28.7z"/>
</g>
</svg>
