<svg width="41" height="42" viewBox="0 0 41 42" xmlns="http://www.w3.org/2000/svg"><title>ICON-clarity</title><g fill="#FFF"><path d="M8.4 41.5c-.3 0-.5 0-.8-.2-.8-.3-1.3-1.1-1.3-1.9v-5.7h-1c-2.8 0-5.1-2.3-5.1-5.1V5.1C.2 2.3 2.5 0 5.3 0H35c2.8 0 5.1 2.3 5.1 5.1v23.5c0 2.8-2.3 5.1-5.1 5.1H16.7l-6.8 7.1c-.5.5-1 .7-1.5.7zM5.3 2.1c-1.7 0-3.1 1.4-3.1 3.1v23.5c0 1.7 1.4 3.1 3.1 3.1h2c.6 0 1 .5 1 1v6.7l7.1-7.4c.2-.2.5-.3.7-.3H35c1.7 0 3.1-1.4 3.1-3.1V5.1C38.1 3.4 36.7 2 35 2H5.3v.1z"/><path d="M21.5 29.7h-2.8c-1 0-2.2-.8-2.2-2v-1.5c-.2-.1-.3-.1-.5-.2l-.2-.1-1 1c-.8.8-2 .8-2.8 0l-2-2c-.4-.4-.6-.9-.6-1.4 0-.5.2-1 .6-1.4l1-1c-.1-.2-.2-.4-.3-.7H9.2c-1.2 0-2-1.1-2-2.2v-2.8c0-1 .8-2.2 2-2.2h1.5l.3-.6.1-.2-1.1-1c-.8-.8-.8-2 0-2.8l2-2c.7-.7 2-.7 2.8 0l1 1h.1l.6-.3V5.9c0-1.2 1.1-2 2.2-2h2.8c1 0 2.2.8 2.2 2v1.4c.2.1.3.1.5.2l.2.1 1-1c.8-.8 2-.8 2.8 0l2 2c.8.8.8 2 0 2.8l-1 1c.1.3.2.5.3.7H31c1.2 0 2 1.1 2 2.2v2.8c0 1-.8 2.2-2 2.2h-1.5c-.1.2-.2.4-.3.5l-.1.1 1 1c.4.4.6.9.6 1.4 0 .5-.2 1-.6 1.4l-2 2c-.4.4-.9.6-1.4.6-.5 0-1-.2-1.4-.6l-1-1h-.1l-.6.3v1.5c.1 1.4-1 2.2-2.1 2.2zm-2.9-2.1h3v-1.4c0-.9.5-1.6 1.2-1.9.2-.1.4-.1.5-.2l.1-.1c.8-.4 1.6-.2 2.2.4l1 1 1.9-1.9-1-1c-.6-.6-.8-1.5-.4-2.3l.1-.2c.1-.1.1-.2.1-.3.3-.8 1-1.3 1.9-1.3h1.4v-3h-1.4c-.9 0-1.6-.5-1.9-1.3-.1-.2-.2-.4-.2-.6-.4-.8-.3-1.7.3-2.3l1-1-1.9-1.9-1 1c-.6.6-1.5.7-2.3.4-.1 0-.2-.1-.3-.1-.1-.1-.2-.1-.3-.2-.8-.3-1.2-1-1.2-1.9V6.2h-3v1.3c0 .9-.5 1.6-1.2 1.9-.2.1-.4.1-.5.2l-.1.1c-.8.4-1.6.2-2.2-.4l-1-1-1.9 1.9 1 1c.6.6.7 1.5.3 2.3l-.1.2c-.1.1-.1.2-.2.4-.3.8-1 1.3-1.9 1.3H9.2v3h1.4c.9 0 1.6.5 1.9 1.3.1.2.1.3.2.5l.1.1c.4.8.3 1.7-.4 2.3l-1 1 1.9 1.9 1-1c.6-.6 1.5-.7 2.3-.4.1 0 .2.1.3.1.1.1.2.1.3.2.8.3 1.2 1 1.2 1.9v1.3h.2z"/><path d="M20.1 21.5c-2.5 0-4.6-2.1-4.6-4.6 0-2.5 2.1-4.6 4.6-4.6 2.5 0 4.6 2.1 4.6 4.6 0 2.5-2 4.6-4.6 4.6zm0-7.1c-1.4 0-2.6 1.1-2.6 2.6s1.1 2.6 2.6 2.6 2.6-1.1 2.6-2.6-1.2-2.6-2.6-2.6z"/></g></svg>