<?xml version="1.0" encoding="utf-8"?>
<!-- Generator: Adobe Illustrator 23.0.1, SVG Export Plug-In . SVG Version: 6.00 Build 0)  -->
<svg version="1.1" id="Layer_1" xmlns="http://www.w3.org/2000/svg" xmlns:xlink="http://www.w3.org/1999/xlink" x="0px" y="0px"
	 viewBox="0 0 82 82" style="enable-background:new 0 0 82 82;" xml:space="preserve">
<style type="text/css">
	.st0{fill:none;stroke:#DB0011;stroke-miterlimit:10;}
</style>
<g>
	<g>
		<path d="M31,58.7c-0.1-0.4,0.2-0.7,0.5-0.8l0,0c0.3-0.1,0.7,0.2,0.7,0.5l0,0c0.1,0.4-0.2,0.7-0.5,0.8l0,0c0,0-0.1,0-0.1,0l0,0
			C31.3,59.2,31,59,31,58.7z M28.3,59.1c-0.3-0.1-0.5-0.4-0.4-0.8l0,0c0.1-0.3,0.4-0.5,0.8-0.4l0,0c0.3,0.1,0.5,0.4,0.4,0.8l0,0
			c-0.1,0.3-0.3,0.5-0.6,0.5l0,0C28.4,59.1,28.3,59.1,28.3,59.1z M34,57.7c-0.2-0.3-0.2-0.7,0.1-0.9v0c0.3-0.2,0.7-0.2,0.9,0.1l0,0
			c0.2,0.3,0.2,0.7-0.1,0.9l0,0c-0.1,0.1-0.3,0.1-0.4,0.1l0,0C34.3,57.9,34.1,57.8,34,57.7z M25.2,57.4c-0.3-0.2-0.3-0.6-0.1-0.9
			l0,0c0.2-0.3,0.6-0.3,0.9-0.1h0c0.3,0.2,0.3,0.6,0.1,0.9l0,0c-0.1,0.1-0.3,0.2-0.5,0.2l0,0C25.5,57.6,25.3,57.5,25.2,57.4z
			 M36.2,55.4c-0.3-0.2-0.4-0.5-0.3-0.9l0,0c0.2-0.3,0.5-0.4,0.9-0.3l0,0c0.3,0.2,0.4,0.5,0.3,0.9l0,0c-0.1,0.2-0.3,0.4-0.6,0.4l0,0
			C36.4,55.5,36.3,55.4,36.2,55.4z M23.2,54.6c-0.1-0.3,0-0.7,0.4-0.8l0,0c0.3-0.1,0.7,0,0.8,0.4l0,0c0.1,0.3,0,0.7-0.4,0.8l0,0
			C24,55,23.9,55,23.8,55l0,0C23.6,55,23.3,54.9,23.2,54.6z M36.5,51.8L36.5,51.8c0-0.4,0.3-0.6,0.6-0.6l0,0c0.4,0,0.6,0.3,0.6,0.6
			l0,0c0,0.4-0.3,0.6-0.6,0.6l0,0C36.8,52.4,36.5,52.1,36.5,51.8z M23.3,51.9c-0.4,0-0.6-0.3-0.6-0.7l0,0c0-0.4,0.3-0.6,0.7-0.6l0,0
			c0.4,0,0.6,0.3,0.6,0.7l0,0C23.9,51.6,23.7,51.9,23.3,51.9L23.3,51.9C23.3,51.9,23.3,51.9,23.3,51.9z M36.2,49.8L36.2,49.8
			c-0.1-0.3,0.1-0.7,0.4-0.8l0,0c0.3-0.1,0.7,0.1,0.8,0.4l0,0c0,0,0,0,0,0l0,0c0.1,0.3-0.1,0.7-0.4,0.8l0,0c-0.1,0-0.1,0-0.2,0l0,0
			C36.6,50.2,36.3,50.1,36.2,49.8z M23.9,48.8c-0.3-0.2-0.4-0.6-0.2-0.9l0,0c0.2-0.3,0.6-0.4,0.9-0.2l0,0c0.3,0.2,0.4,0.6,0.2,0.9
			l0,0c-0.1,0.2-0.3,0.3-0.6,0.3l0,0C24.1,48.9,24,48.8,23.9,48.8z M34.8,47.3L34.8,47.3c-0.2-0.2-0.2-0.7,0-0.9l0,0
			c0.2-0.2,0.7-0.2,0.9,0l0,0c0.2,0.2,0.2,0.7,0,0.9l0,0c-0.1,0.1-0.3,0.2-0.4,0.2l0,0C35,47.5,34.9,47.5,34.8,47.3z M25.9,46.3
			c-0.2-0.3-0.1-0.7,0.2-0.9l0,0c0.3-0.2,0.7-0.1,0.9,0.2l0,0c0.2,0.3,0.1,0.7-0.2,0.9l0,0c-0.1,0.1-0.2,0.1-0.4,0.1l0,0
			C26.2,46.6,26,46.5,25.9,46.3z M32.3,45.8c-0.3-0.1-0.5-0.5-0.4-0.8l0,0c0.1-0.3,0.5-0.5,0.8-0.4l0,0c0.3,0.1,0.5,0.5,0.4,0.8l0,0
			c-0.1,0.3-0.3,0.4-0.6,0.4l0,0C32.5,45.8,32.4,45.8,32.3,45.8z M28.8,44.9c0-0.4,0.2-0.7,0.6-0.7l0,0c0.3,0,0.7,0.2,0.7,0.6l0,0
			c0,0.4-0.2,0.7-0.6,0.7h0c0,0-0.1,0-0.1,0l0,0C29.1,45.5,28.8,45.3,28.8,44.9z"/>
		<path d="M66.3,51.8c0-0.4,0.3-0.6,0.6-0.6l0,0c0.4,0,0.6,0.3,0.6,0.6l0,0c0,0.4-0.3,0.6-0.6,0.6l0,0
			C66.6,52.4,66.3,52.1,66.3,51.8z M63.8,51.8c0-0.4,0.3-0.6,0.6-0.6l0,0c0.4,0,0.6,0.3,0.6,0.6l0,0c0,0.4-0.3,0.6-0.6,0.6l0,0
			C64,52.4,63.8,52.1,63.8,51.8z M61.2,51.8c0-0.4,0.3-0.6,0.6-0.6l0,0c0.4,0,0.6,0.3,0.6,0.6l0,0c0,0.4-0.3,0.6-0.6,0.6l0,0
			C61.5,52.4,61.2,52.1,61.2,51.8z M58.7,51.8c0-0.4,0.3-0.6,0.6-0.6l0,0c0.4,0,0.6,0.3,0.6,0.6l0,0c0,0.4-0.3,0.6-0.6,0.6l0,0
			C58.9,52.4,58.7,52.1,58.7,51.8z M56.1,51.8c0-0.4,0.3-0.6,0.6-0.6l0,0c0.4,0,0.6,0.3,0.6,0.6l0,0c0,0.4-0.3,0.6-0.6,0.6l0,0
			C56.4,52.4,56.1,52.1,56.1,51.8z M53.6,51.8c0-0.4,0.3-0.6,0.6-0.6l0,0c0.4,0,0.6,0.3,0.6,0.6l0,0c0,0.4-0.3,0.6-0.6,0.6l0,0
			C53.8,52.4,53.6,52.1,53.6,51.8z M51,51.8c0-0.4,0.3-0.6,0.6-0.6l0,0c0.4,0,0.6,0.3,0.6,0.6l0,0c0,0.4-0.3,0.6-0.6,0.6l0,0
			C51.3,52.4,51,52.1,51,51.8z M48.5,51.8c0-0.4,0.3-0.6,0.6-0.6l0,0c0.4,0,0.6,0.3,0.6,0.6l0,0c0,0.4-0.3,0.6-0.6,0.6l0,0
			C48.7,52.4,48.5,52.1,48.5,51.8z M45.9,51.8c0-0.4,0.3-0.6,0.6-0.6l0,0c0.4,0,0.6,0.3,0.6,0.6l0,0c0,0.4-0.3,0.6-0.6,0.6l0,0
			C46.2,52.4,45.9,52.1,45.9,51.8z M43.4,51.8c0-0.4,0.3-0.6,0.6-0.6l0,0c0.4,0,0.6,0.3,0.6,0.6l0,0c0,0.4-0.3,0.6-0.6,0.6l0,0
			C43.6,52.4,43.4,52.1,43.4,51.8z M40.8,51.8c0-0.4,0.3-0.6,0.6-0.6l0,0c0.4,0,0.6,0.3,0.6,0.6l0,0c0,0.4-0.3,0.6-0.6,0.6l0,0
			C41.1,52.4,40.8,52.1,40.8,51.8z M38.3,51.8c0-0.4,0.3-0.6,0.6-0.6l0,0c0.4,0,0.6,0.3,0.6,0.6l0,0c0,0.4-0.3,0.6-0.6,0.6l0,0
			C38.5,52.4,38.3,52.1,38.3,51.8z"/>
		<path d="M29.6,43.1c0-0.4,0.3-0.6,0.6-0.6l0,0c0.4,0,0.6,0.3,0.6,0.6l0,0c0,0.4-0.3,0.6-0.6,0.6l0,0
			C29.9,43.7,29.6,43.5,29.6,43.1z M29.6,40.6c0-0.4,0.3-0.6,0.6-0.6l0,0c0.4,0,0.6,0.3,0.6,0.6l0,0c0,0.4-0.3,0.6-0.6,0.6l0,0
			C29.9,41.2,29.6,40.9,29.6,40.6z M29.6,38c0-0.4,0.3-0.6,0.6-0.6l0,0c0.4,0,0.6,0.3,0.6,0.6l0,0c0,0.4-0.3,0.6-0.6,0.6l0,0
			C29.9,38.6,29.6,38.4,29.6,38z M29.6,35.5c0-0.4,0.3-0.6,0.6-0.6l0,0c0.4,0,0.6,0.3,0.6,0.6l0,0c0,0.4-0.3,0.6-0.6,0.6l0,0
			C29.9,36.1,29.6,35.8,29.6,35.5z M29.6,32.9c0-0.4,0.3-0.6,0.6-0.6l0,0c0.4,0,0.6,0.3,0.6,0.6l0,0c0,0.4-0.3,0.6-0.6,0.6l0,0
			C29.9,33.5,29.6,33.3,29.6,32.9z M29.6,30.3c0-0.4,0.3-0.6,0.6-0.6l0,0c0.4,0,0.6,0.3,0.6,0.6l0,0c0,0.4-0.3,0.6-0.6,0.6l0,0
			C29.9,31,29.6,30.7,29.6,30.3z M29.6,27.8c0-0.4,0.3-0.6,0.6-0.6l0,0c0.4,0,0.6,0.3,0.6,0.6l0,0c0,0.4-0.3,0.6-0.6,0.6l0,0
			C29.9,28.4,29.6,28.2,29.6,27.8z M29.6,25.2c0-0.4,0.3-0.6,0.6-0.6l0,0c0.4,0,0.6,0.3,0.6,0.6l0,0c0,0.4-0.3,0.6-0.6,0.6l0,0
			C29.9,25.9,29.6,25.6,29.6,25.2z M29.6,22.7c0-0.4,0.3-0.6,0.6-0.6l0,0c0.4,0,0.6,0.3,0.6,0.6l0,0c0,0.4-0.3,0.6-0.6,0.6l0,0
			C29.9,23.3,29.6,23.1,29.6,22.7z M29.6,20.1c0-0.4,0.3-0.6,0.6-0.6l0,0c0.4,0,0.6,0.3,0.6,0.6l0,0c0,0.4-0.3,0.6-0.6,0.6l0,0
			C29.9,20.8,29.6,20.5,29.6,20.1z M29.6,17.6c0-0.4,0.3-0.6,0.6-0.6l0,0c0.4,0,0.6,0.3,0.6,0.6l0,0c0,0.4-0.3,0.6-0.6,0.6l0,0
			C29.9,18.2,29.6,18,29.6,17.6z M29.6,15c0-0.4,0.3-0.6,0.6-0.6l0,0c0.4,0,0.6,0.3,0.6,0.6l0,0c0,0.4-0.3,0.6-0.6,0.6l0,0
			C29.9,15.7,29.6,15.4,29.6,15z"/>
		<path d="M12.7,69.6c-0.2-0.2-0.2-0.7,0-0.9l0,0c0.2-0.2,0.7-0.2,0.9,0l0,0c0.2,0.2,0.2,0.7,0,0.9l0,0c-0.1,0.1-0.3,0.2-0.5,0.2
			l0,0C13,69.8,12.8,69.7,12.7,69.6z M14.5,67.8c-0.2-0.2-0.2-0.7,0-0.9l0,0c0.2-0.3,0.7-0.3,0.9,0l0,0c0.2,0.2,0.2,0.7,0,0.9l0,0
			C15.3,67.9,15.1,68,15,68l0,0C14.8,68,14.6,67.9,14.5,67.8z M16.3,66c-0.2-0.2-0.2-0.7,0-0.9l0,0c0.3-0.2,0.7-0.2,0.9,0l0,0
			c0.2,0.2,0.2,0.7,0,0.9l0,0c-0.1,0.1-0.3,0.2-0.5,0.2l0,0C16.6,66.2,16.4,66.1,16.3,66z M18.1,64.2c-0.2-0.2-0.2-0.7,0-0.9l0,0
			c0.2-0.2,0.7-0.2,0.9,0l0,0c0.2,0.2,0.2,0.7,0,0.9l0,0c-0.1,0.1-0.3,0.2-0.5,0.2l0,0C18.4,64.4,18.2,64.3,18.1,64.2z M19.9,62.4
			c-0.2-0.2-0.2-0.7,0-0.9l0,0c0.2-0.2,0.7-0.2,0.9,0l0,0c0.2,0.2,0.2,0.7,0,0.9l0,0c-0.1,0.1-0.3,0.2-0.5,0.2l0,0
			C20.2,62.6,20,62.5,19.9,62.4z M21.7,60.6c-0.2-0.2-0.2-0.7,0-0.9l0,0c0.2-0.2,0.7-0.2,0.9,0l0,0c0.2,0.2,0.2,0.7,0,0.9l0,0
			c-0.1,0.1-0.3,0.2-0.4,0.2l0,0C22,60.8,21.8,60.7,21.7,60.6z M23.5,58.8c-0.2-0.2-0.2-0.7,0-0.9l0,0c0.2-0.2,0.7-0.2,0.9,0l0,0
			c0.2,0.2,0.2,0.7,0,0.9l0,0C24.3,58.9,24.1,59,24,59l0,0C23.8,59,23.7,58.9,23.5,58.8z"/>
	</g>
	<path d="M8.1,81.5c-4.2,0-7.6-3.4-7.6-7.6c0-4.2,3.4-7.6,7.6-7.6s7.6,3.4,7.6,7.6C15.7,78.1,12.3,81.5,8.1,81.5z M8.1,67.6
		c-3.5,0-6.3,2.8-6.3,6.3c0,3.5,2.8,6.3,6.3,6.3c3.5,0,6.3-2.8,6.3-6.3C14.4,70.4,11.6,67.6,8.1,67.6z"/>
	<path d="M51.8,81.5c-4.2,0-7.6-3.4-7.6-7.6c0-4.2,3.4-7.6,7.6-7.6s7.6,3.4,7.6,7.6C59.3,78.1,55.9,81.5,51.8,81.5z M51.8,67.6
		c-3.5,0-6.3,2.8-6.3,6.3c0,3.5,2.8,6.3,6.3,6.3c3.5,0,6.3-2.8,6.3-6.3C58.1,70.4,55.2,67.6,51.8,67.6z"/>
	<path d="M44.8,74.6H15c-0.4,0-0.6-0.3-0.6-0.6c0-0.4,0.3-0.6,0.6-0.6h29.8c0.4,0,0.6,0.3,0.6,0.6C45.4,74.3,45.2,74.6,44.8,74.6z"
		/>
	<path d="M44.8,30.9H15c-0.4,0-0.6-0.3-0.6-0.6c0-0.4,0.3-0.6,0.6-0.6h29.8c0.4,0,0.6,0.3,0.6,0.6C45.4,30.6,45.2,30.9,44.8,30.9z"
		/>
	<path d="M8.1,37.8c-4.2,0-7.6-3.4-7.6-7.6s3.4-7.6,7.6-7.6s7.6,3.4,7.6,7.6S12.3,37.8,8.1,37.8z M8.1,23.9c-3.5,0-6.3,2.8-6.3,6.3
		s2.8,6.3,6.3,6.3c3.5,0,6.3-2.8,6.3-6.3S11.6,23.9,8.1,23.9z"/>
	<path d="M8.1,67.6c-0.4,0-0.6-0.3-0.6-0.6V37.2c0-0.4,0.3-0.6,0.6-0.6c0.4,0,0.6,0.3,0.6,0.6V67C8.7,67.3,8.4,67.6,8.1,67.6z"/>
	<path d="M51.8,37.8c-4.2,0-7.6-3.4-7.6-7.6s3.4-7.6,7.6-7.6s7.6,3.4,7.6,7.6S55.9,37.8,51.8,37.8z M51.8,23.9
		c-3.5,0-6.3,2.8-6.3,6.3s2.8,6.3,6.3,6.3c3.5,0,6.3-2.8,6.3-6.3S55.2,23.9,51.8,23.9z"/>
	<path class="st0" d="M51.8,26.1c-2.3,0-4.2,1.9-4.2,4.2s1.9,4.2,4.2,4.2c2.3,0,4.2-1.9,4.2-4.2S54,26.1,51.8,26.1z"/>
	<path d="M51.8,67.6c-0.4,0-0.6-0.3-0.6-0.6V37.2c0-0.4,0.3-0.6,0.6-0.6s0.6,0.3,0.6,0.6V67C52.4,67.3,52.1,67.6,51.8,67.6z"/>
	<path d="M73.9,59.3c-4.2,0-7.6-3.4-7.6-7.6s3.4-7.6,7.6-7.6c4.2,0,7.6,3.4,7.6,7.6S78.1,59.3,73.9,59.3z M73.9,45.4
		c-3.5,0-6.3,2.8-6.3,6.3s2.8,6.3,6.3,6.3s6.3-2.8,6.3-6.3S77.4,45.4,73.9,45.4z"/>
	<path d="M67,8.7H37.2c-0.4,0-0.6-0.3-0.6-0.6c0-0.4,0.3-0.6,0.6-0.6H67c0.4,0,0.6,0.3,0.6,0.6C67.6,8.4,67.3,8.7,67,8.7z"/>
	<path d="M30.2,15.7c-4.2,0-7.6-3.4-7.6-7.6c0-4.2,3.4-7.6,7.6-7.6s7.6,3.4,7.6,7.6C37.8,12.3,34.4,15.7,30.2,15.7z M30.2,1.8
		c-3.5,0-6.3,2.8-6.3,6.3c0,3.5,2.8,6.3,6.3,6.3s6.3-2.8,6.3-6.3C36.6,4.6,33.7,1.8,30.2,1.8z"/>
	<path d="M73.9,15.7c-4.2,0-7.6-3.4-7.6-7.6c0-4.2,3.4-7.6,7.6-7.6c4.2,0,7.6,3.4,7.6,7.6S78.1,15.7,73.9,15.7z M73.9,1.8
		c-3.5,0-6.3,2.8-6.3,6.3c0,3.5,2.8,6.3,6.3,6.3s6.3-2.8,6.3-6.3C80.2,4.6,77.4,1.8,73.9,1.8z"/>
	<path d="M73.9,45.4c-0.4,0-0.6-0.3-0.6-0.6V15c0-0.4,0.3-0.6,0.6-0.6c0.4,0,0.6,0.3,0.6,0.6v29.8C74.6,45.2,74.3,45.4,73.9,45.4z"
		/>
	<path d="M56.8,25.8c-0.2,0-0.3-0.1-0.5-0.2c-0.2-0.2-0.2-0.7,0-0.9l12-12c0.2-0.2,0.7-0.2,0.9,0c0.2,0.2,0.2,0.7,0,0.9l-12,12
		C57.2,25.7,57,25.8,56.8,25.8z"/>
	<path d="M13.2,25.8c-0.2,0-0.3-0.1-0.5-0.2c-0.2-0.2-0.2-0.7,0-0.9l12-12c0.2-0.2,0.7-0.2,0.9,0c0.2,0.2,0.2,0.7,0,0.9l-12,12
		C13.5,25.7,13.3,25.8,13.2,25.8z"/>
	<path d="M56.8,69.8c-0.2,0-0.3-0.1-0.5-0.2c-0.2-0.2-0.2-0.7,0-0.9l12-12c0.2-0.2,0.7-0.2,0.9,0c0.2,0.2,0.2,0.7,0,0.9l-12,12
		C57.2,69.7,57,69.8,56.8,69.8z"/>
</g>
</svg>
