<svg width="47" height="34" viewBox="0 0 47 34" xmlns="http://www.w3.org/2000/svg"><title>ICON-consolidate</title><g fill-rule="nonzero" fill="#FFF"><path d="M17.3 26.9h15.8V28H17.3v-1.1zm0-3.4h15.8v1.1H17.3v-1.1zM13.4 12H15v15.8h-1.6V12zm16.9 5.9H37V10h-6.7v7.9zm1.6-6.4h3.5v4.8h-3.5v-4.8zM17.3 20h15.8v1.1H17.3V20z"/><path d="M43 .9H9.2C7.5.9 6 2.3 6 4.1v2.2H3.6C1.9 6.3.4 7.7.4 9.5v21.1c0 1.7 1.4 3.2 3.2 3.2h33.8c1.7 0 3.2-1.4 3.2-3.2v-2.2H43c1.7 0 3.2-1.4 3.2-3.2V4.1c0-1.8-1.4-3.2-3.2-3.2zm-4.5 29.7c0 .6-.5 1.1-1.1 1.1H3.6c-.6 0-1.1-.5-1.1-1.1V9.5c0-.6.5-1.1 1.1-1.1h33.8c.6 0 1.1.5 1.1 1.1v21.1zm5.6-5.4c0 .6-.5 1.1-1.1 1.1h-2.4V9.5c0-1.7-1.4-3.2-3.2-3.2H8.2V4.1c0-.6.5-1.1 1.1-1.1H43c.6 0 1.1.5 1.1 1.1v21.1z"/></g></svg>