<?xml version="1.0" encoding="utf-8"?>
<!-- Generator: Adobe Illustrator 23.0.1, SVG Export Plug-In . SVG Version: 6.00 Build 0)  -->
<svg version="1.1" id="Layer_1" xmlns="http://www.w3.org/2000/svg" xmlns:xlink="http://www.w3.org/1999/xlink" x="0px" y="0px"
	 viewBox="0 0 82 82" style="enable-background:new 0 0 82 82;" xml:space="preserve">
<style type="text/css">
	.st0{fill:#DB0011;}
</style>
<g>
	<g>
		<polygon points="12.2,53.7 13.4,53.7 13.4,42.2 24.8,42.2 24.8,41.2 13.4,41.2 13.4,31.4 26.3,31.4 26.3,30.3 12.2,30.3 		"/>
		<path d="M50.6,53.7l-10-23.5h-1.3l-9.9,23.5h1.3l3.3-7.9h12l3.4,7.9H50.6z M34.4,44.8l5.5-13H40l5.5,13H34.4z"/>
		<path d="M56,49.2c-0.5-1-0.7-2-0.7-3v-0.1h-1.4v0.1c0,1.3,0.3,2.5,1,3.7c0.3,0.5,0.7,1,1.1,1.5c0.4-0.2,0.7-0.5,1.1-0.7
			C56.6,50.3,56.2,49.8,56,49.2z"/>
		<path d="M71,47.3c0-2-0.7-3.4-2.1-4.3c-1.4-0.8-3-1.4-4.9-1.7l-3.6-0.6c-1.5-0.3-2.6-0.8-3.4-1.6c-0.8-0.8-1.2-1.7-1.2-2.9
			c0-1,0.3-1.8,0.8-2.7s1.3-1.4,2.3-1.9c1-0.5,2.1-0.7,3.5-0.7c1.7,0,3.1,0.3,4.1,1c1,0.7,1.8,1.4,2.2,2.3c0.4,0.9,0.6,1.8,0.6,2.6
			V37h1.4v-0.1c0-1.2-0.3-2.3-0.9-3.4c-0.6-1.1-1.6-2-2.8-2.7c-1.3-0.7-2.8-1-4.6-1c-1.6,0-2.9,0.3-4.1,0.8s-2.1,1.3-2.7,2.2
			c-0.6,1-1,2.1-1,3.3c0,2,0.7,3.4,2,4.2s2.6,1.3,4,1.5l4.3,0.7c1.5,0.3,2.7,0.8,3.6,1.6c0.9,0.8,1.4,1.8,1.4,3.2
			c0,0.9-0.2,1.7-0.6,2.4c0.4,0.1,0.8,0.3,1.2,0.4C70.7,49.3,71,48.4,71,47.3z"/>
		<path d="M41,80.5C19.2,80.5,1.5,62.8,1.5,41S19.2,1.5,41,1.5S80.5,19.2,80.5,41c0,5.5-1.1,10.7-3.1,15.4c0.2,0.4,0.4,0.7,0.6,1.1
			c2.3-5.1,3.5-10.7,3.5-16.5C81.5,18.7,63.3,0.5,41,0.5C18.7,0.5,0.5,18.7,0.5,41c0,22.3,18.2,40.5,40.5,40.5
			c5.9,0,11.5-1.3,16.5-3.5c-0.4-0.2-0.7-0.4-1.1-0.6C51.7,79.4,46.5,80.5,41,80.5z"/>
	</g>
	<path class="st0" d="M77.4,58.7c-0.2-0.4-0.4-0.8-0.6-1.2c-1.5-2.9-4.1-5.2-7.1-6.5c-0.4-0.2-0.8-0.3-1.2-0.5
		c-1.4-0.4-2.8-0.7-4.3-0.7c-2.3,0-4.4,0.5-6.3,1.5c-0.4,0.2-0.8,0.4-1.2,0.7c-4.1,2.5-6.8,7-6.8,12.1c0,5.5,3.1,10.2,7.6,12.6
		c0.4,0.2,0.8,0.4,1.2,0.6c1.7,0.7,3.5,1.1,5.5,1.1c7.9,0,14.3-6.4,14.3-14.3C78.5,62.3,78.1,60.4,77.4,58.7z M64.2,77.5
		c-1.5,0-2.9-0.3-4.3-0.7c-0.4-0.1-0.8-0.3-1.2-0.5c-4.6-2.1-7.8-6.7-7.8-12.1c0-3.5,1.4-6.7,3.6-9l0.7,0.7l13.4,13.4l0.7,0.7
		l3.3,3.3l0.7,0.7C70.9,76.1,67.7,77.5,64.2,77.5z M73.9,73.2l-0.7-0.7L70,69.3l-0.7-0.7L55.9,55.2l-0.7-0.7
		c0.7-0.7,1.5-1.3,2.4-1.8c0.4-0.2,0.9-0.5,1.3-0.7c1.6-0.7,3.4-1.1,5.3-1.1c1.2,0,2.3,0.2,3.4,0.5c0.5,0.1,1,0.3,1.4,0.5
		c3.2,1.3,5.9,3.7,7.3,6.9c0.2,0.4,0.3,0.8,0.5,1.2c0.5,1.3,0.7,2.8,0.7,4.3C77.5,67.7,76.1,70.9,73.9,73.2z"/>
</g>
</svg>
