<?xml version="1.0" encoding="utf-8"?>
<!-- Generator: Adobe Illustrator 23.0.1, SVG Export Plug-In . SVG Version: 6.00 Build 0)  -->
<svg version="1.1" id="Layer_1" xmlns="http://www.w3.org/2000/svg" xmlns:xlink="http://www.w3.org/1999/xlink" x="0px" y="0px"
	 viewBox="0 0 82 82" style="enable-background:new 0 0 82 82;" xml:space="preserve">
<style type="text/css">
	.st0{fill:#DB0011;}
</style>
<g>
	<path d="M75.3,0.5h-22c-4.1,0-7.1,1.3-10.1,4.3c-0.3,0.3-0.3,0.8,0,1c0.3,0.3,0.8,0.3,1,0C47,3,49.6,1.9,53.3,1.9h22
		c2.6,0,4.8,2.1,4.8,4.8v22c0,3.7-1.1,6.3-3.9,9.1L35.3,78.6c-0.9,0.9-2.1,1.4-3.4,1.4c0,0,0,0,0,0c-1.3,0-2.5-0.5-3.4-1.4L3.4,53.3
		C2.5,52.4,2,51.2,2,50c0-1.3,0.5-2.5,1.4-3.4L40.5,9.6L41,9.7c0.5,0.1,1,0.3,1.5,0.4c5.1,1.4,9.6,2.9,13.4,4.5l0.6,0.3l-0.3,0.6
		c-0.6,1.1-0.9,2.4-0.9,3.6c0,4.2,3.4,7.6,7.6,7.6s7.6-3.4,7.6-7.6c0-4.2-3.4-7.6-7.6-7.6c-0.4,0-0.7,0.3-0.7,0.7
		c0,0.4,0.3,0.7,0.7,0.7c3.4,0,6.1,2.7,6.1,6.1s-2.7,6.1-6.1,6.1s-6.1-2.7-6.1-6.1c0-1.1,0.3-2.2,0.9-3.1l0.3-0.5l0.5,0.3
		c2.3,1.1,3.9,2.1,4.6,2.8l0.7,0.8l-1,0.3c-0.4,0.1-0.8,0.2-1.3,0.2c-0.2,0-0.4,0.1-0.5,0.3c-0.1,0.2-0.2,0.3-0.2,0.5
		c0,0.4,0.4,0.7,0.7,0.7c0.8-0.1,3-0.3,3.4-1.7c0.9-3.2-10.8-7.9-22-10.9C36.9,7,31.1,5.9,26.6,5.5c-5.1-0.4-7.7,0.1-8.1,1.6
		c-0.5,1.9,2.8,4.2,9.9,7c0.4,0.1,0.8,0,1-0.4c0.1-0.2,0.1-0.4,0-0.6c-0.1-0.2-0.2-0.3-0.4-0.4c-6-2.4-8-4-8.5-4.6l-0.7-0.8l1-0.3
		c0.6-0.2,1.5-0.3,2.7-0.3c3.1,0,8,0.6,14.4,2l1.1,0.3L2.3,45.6c-1.2,1.2-1.8,2.7-1.8,4.4c0,1.7,0.6,3.2,1.8,4.4l25.2,25.2
		c1.2,1.2,2.7,1.8,4.4,1.8c1.7,0,3.2-0.6,4.4-1.8l40.8-40.8c3-3,4.3-6.1,4.3-10.1v-22C81.5,3.2,78.7,0.5,75.3,0.5z"/>
	<path d="M70.8,50.6L70.8,50.6c-0.2-0.1-0.4-0.1-0.6-0.1c-0.2,0-0.4,0.2-0.5,0.3L54,77.7c-1.3,2.3-4.2,3.1-6.4,1.8l-3.1-2
		c-0.1-0.1-0.3-0.1-0.4-0.1c-0.1,0-0.1,0-0.2,0c-0.2,0-0.4,0.2-0.5,0.3c-0.1,0.2-0.1,0.4-0.1,0.6c0,0.2,0.2,0.4,0.3,0.5l3.1,2
		c0.9,0.5,2,0.8,3.1,0.8c2.2,0,4.3-1.2,5.4-3.1l15.7-26.8c0.1-0.2,0.1-0.4,0.1-0.6C71.1,50.8,71,50.7,70.8,50.6z"/>
	<path class="st0" d="M34.1,59.6c0.4,0,0.7-0.3,0.7-0.7V39.6c0-0.4-0.3-0.7-0.7-0.7c-0.4,0-0.7,0.3-0.7,0.7v19.2
		C33.3,59.3,33.7,59.6,34.1,59.6z"/>
	<circle class="st0" cx="43.7" cy="43.8" r="2.1"/>
	<path class="st0" d="M22.3,52c0,1.2,0.9,2.1,2.1,2.1c1.2,0,2.1-0.9,2.1-2.1c0-1.2-0.9-2.1-2.1-2.1C23.3,49.9,22.3,50.8,22.3,52z"/>
</g>
</svg>
