<?xml version="1.0" encoding="utf-8"?>
<!-- Generator: Adobe Illustrator 23.0.1, SVG Export Plug-In . SVG Version: 6.00 Build 0)  -->
<svg version="1.1" id="Layer_1" xmlns="http://www.w3.org/2000/svg" xmlns:xlink="http://www.w3.org/1999/xlink" x="0px" y="0px"
	 viewBox="0 0 82 82" style="enable-background:new 0 0 82 82;" xml:space="preserve">
<style type="text/css">
	.st0{fill:none;}
	.st1{fill:none;stroke:#000000;stroke-linecap:round;}
	.st2{fill:none;stroke:#DB0011;stroke-dasharray:5.897,10.811;}
</style>
<g id="Group_3313" transform="translate(0.5 0.5)">
	<g id="XMLID_16_" transform="translate(8.929 8.929)">
		<circle id="XMLID_27_" class="st0" cx="31.6" cy="31.6" r="31.6"/>
		<g id="XMLID_17_" transform="translate(0 0)">
			<g id="XMLID_18_">
				<g id="XMLID_19_">
					<path id="XMLID_26_" class="st1" d="M31.6,63.1V0"/>
					<path id="XMLID_25_" class="st1" d="M31.6,0h-0.7c-17.4,14.1-20.1,39.6-6.1,57.1c1.8,2.2,3.8,4.3,6.1,6.1h0.7"/>
					<path id="XMLID_24_" class="st1" d="M8.6,9.8c6.8,4.6,14.8,7.1,22.9,7.1c8.2,0,16.2-2.5,22.9-7.1"/>
					<path id="XMLID_23_" class="st1" d="M0,31.6h63.2"/>
					<path id="XMLID_22_" class="st1" d="M63.1,31.6C63.1,49,49,63.1,31.6,63.1S0,49,0,31.6C0,14.1,14.1,0,31.6,0c0,0,0,0,0,0
						C49,0,63.1,14.1,63.1,31.6z"/>
					<path id="XMLID_21_" class="st1" d="M54.5,52.2c-13.8-9.4-32-9.4-45.9,0"/>
					<path id="XMLID_20_" class="st1" d="M31.6,0h0.7c17.4,14.1,20.1,39.6,6.1,57.1c-1.8,2.2-3.8,4.3-6.1,6.1h-0.7"/>
				</g>
			</g>
		</g>
	</g>
	<path id="XMLID_15_" class="st2" d="M40.5,0.5c22.1,0,40,17.9,40,40s-17.9,40-40,40s-40-17.9-40-40S18.4,0.5,40.5,0.5z"/>
</g>
</svg>
