<?xml version="1.0" encoding="utf-8"?>
<!-- Generator: Adobe Illustrator 23.0.1, SVG Export Plug-In . SVG Version: 6.00 Build 0)  -->
<svg version="1.1" id="Layer_1" xmlns="http://www.w3.org/2000/svg" xmlns:xlink="http://www.w3.org/1999/xlink" x="0px" y="0px"
	 viewBox="0 0 82 82" style="enable-background:new 0 0 82 82;" xml:space="preserve">
<style type="text/css">
	.st0{fill:#DB0011;}
</style>
<g>
	<path d="M53.1,52.4H4.7c-2.3,0-4.2,1.9-4.2,4.2v6.9c0,1,0.4,2,1.1,2.8L2.2,67l-0.6,0.7c-0.7,0.8-1.1,1.8-1.1,2.8v6.9
		c0,2.3,1.9,4.2,4.2,4.2h48.5c2.3,0,4.2-1.9,4.2-4.2v-6.9c0-1-0.4-2-1.1-2.8L55.6,67l0.6-0.7c0.7-0.8,1.1-1.8,1.1-2.8v-6.9
		C57.3,54.3,55.4,52.4,53.1,52.4z M55.9,70.4v6.9c0,1.5-1.2,2.8-2.8,2.8H4.7c-1.5,0-2.8-1.2-2.8-2.8v-6.9c0-1.5,1.2-2.8,2.8-2.8
		h48.5C54.6,67.7,55.9,68.9,55.9,70.4z M55.9,63.5c0,1.5-1.2,2.8-2.8,2.8H4.7c-1.5,0-2.8-1.2-2.8-2.8v-6.9c0-1.5,1.2-2.8,2.8-2.8
		h48.5c1.5,0,2.8,1.2,2.8,2.8V63.5z"/>
	<path d="M8.1,59.3c-0.4,0-0.7,0.3-0.7,0.7c0,0.4,0.3,0.7,0.7,0.7c0.4,0,0.7-0.3,0.7-0.7C8.8,59.7,8.5,59.3,8.1,59.3z"/>
	<path d="M49.7,73.2H35.8c-0.4,0-0.7,0.3-0.7,0.7c0,0.4,0.3,0.7,0.7,0.7h13.8c0.4,0,0.7-0.3,0.7-0.7C50.3,73.5,50,73.2,49.7,73.2z"
		/>
	<path d="M49.7,59.3H35.8c-0.4,0-0.7,0.3-0.7,0.7c0,0.4,0.3,0.7,0.7,0.7h13.8c0.4,0,0.7-0.3,0.7-0.7C50.3,59.7,50,59.3,49.7,59.3z"
		/>
	<path d="M81.2,31.8c-0.2-1.7-1.2-3.2-2.6-4.1c-1.4-0.9-3.2-1-4.8-0.4c-2,0.8-4.3-0.2-5.2-2.3c-0.8-1.7-1.7-3.4-2.9-5
		c-1.3-1.8-1.1-4.3,0.6-5.6c1.3-1.1,2-2.6,2-4.3c0-1.7-0.8-3.3-2.2-4.3c-2.6-1.9-5.4-3.6-8.4-4.8c-1.6-0.7-3.4-0.6-4.9,0.2
		c-1.5,0.8-2.5,2.2-2.7,3.9c-0.4,2.1-2.3,3.6-4.6,3.4c-1.9-0.2-3.8-0.2-5.7,0c-2.3,0.2-4.3-1.2-4.6-3.4C35,3.4,34,2,32.5,1.2
		c-1.5-0.8-3.3-0.9-4.9-0.2c-3,1.3-5.8,2.9-8.4,4.8c-1.4,1-2.2,2.6-2.2,4.3c0,1.7,0.7,3.2,2,4.3c1.7,1.4,1.9,3.8,0.6,5.6
		c-1.1,1.6-2.1,3.2-2.8,5c-0.9,2-3.2,3-5.2,2.3c-1.6-0.6-3.3-0.4-4.7,0.4c-1.5,0.9-2.4,2.4-2.6,4.1C4.1,33.4,4,35,4,36.6
		s0.1,3.3,0.3,4.9c0.2,1.7,1.2,3.2,2.6,4.1c1.4,0.9,3.2,1,4.8,0.4c1.3-0.5,2.8-0.2,4,0.7c0.1,0.1,0.3,0.2,0.5,0.2
		c0.2,0,0.3-0.1,0.5-0.3c0.1-0.1,0.2-0.3,0.2-0.5c0-0.2-0.1-0.3-0.3-0.5C15,44.4,13,44,11.1,44.7C10,45.1,8.7,45,7.6,44.4
		c-1.1-0.7-1.8-1.8-2-3c-0.2-1.5-0.3-3.1-0.3-4.7c0-1.6,0.1-3.1,0.3-4.7c0.2-1.3,0.9-2.4,2-3c1.1-0.6,2.4-0.8,3.6-0.3
		c2.7,1,5.7-0.3,6.9-3c0.7-1.7,1.6-3.2,2.7-4.7c1.8-2.4,1.4-5.7-0.9-7.5c-1-0.8-1.5-2-1.5-3.2c0-1.3,0.6-2.5,1.7-3.2
		c2.5-1.9,5.2-3.4,8.1-4.7c1.2-0.5,2.5-0.4,3.7,0.2C33,3,33.7,4,33.9,5.3c0.5,2.9,3.1,4.8,6.1,4.5c1.8-0.2,3.6-0.2,5.4,0
		c3,0.3,5.6-1.6,6.1-4.5c0.2-1.2,0.9-2.3,2-2.9c1.1-0.6,2.5-0.7,3.7-0.2c2.9,1.2,5.6,2.8,8.1,4.7c1,0.8,1.6,2,1.7,3.2
		c0,1.2-0.5,2.4-1.5,3.2c-2.2,1.8-2.6,5.1-0.9,7.5c1.1,1.5,2,3.1,2.7,4.7c1.2,2.7,4.3,4,7,3c1.2-0.4,2.4-0.3,3.5,0.3
		c1.1,0.7,1.8,1.8,2,3.1c0.2,1.5,0.3,3.1,0.3,4.7c0,1.6-0.1,3.1-0.3,4.7c-0.2,1.3-0.9,2.4-2,3c-1.1,0.6-2.4,0.8-3.6,0.3
		c-0.6-0.2-1.2-0.3-1.8-0.3c-2.1,0-4.2,1.3-5.1,3.4c-0.7,1.7-1.7,3.3-2.7,4.7c-1.8,2.4-1.4,5.7,0.9,7.5c1,0.8,1.5,2,1.5,3.2
		c0,1.3-0.6,2.5-1.7,3.2c-0.7,0.5-1.4,1-2.1,1.5c-0.2,0.1-0.3,0.3-0.3,0.4c0,0.2,0,0.4,0.1,0.5c0.1,0.2,0.3,0.3,0.6,0.3
		c0.1,0,0.2,0,0.4-0.1c0.8-0.5,1.5-1,2.2-1.5c1.4-1,2.2-2.6,2.2-4.3c0-1.7-0.7-3.2-2-4.3c-1.7-1.4-1.9-3.8-0.6-5.6
		c1.1-1.5,2.1-3.2,2.9-5c0.9-2,3.2-3,5.2-2.3c1.6,0.6,3.3,0.4,4.7-0.4c1.5-0.9,2.4-2.4,2.6-4.1c0.2-1.6,0.3-3.2,0.3-4.9
		C81.5,35,81.4,33.4,81.2,31.8L81.2,31.8z"/>
	<path d="M8.1,73.2c-0.4,0-0.7,0.3-0.7,0.7c0,0.4,0.3,0.7,0.7,0.7c0.4,0,0.7-0.3,0.7-0.7C8.8,73.5,8.5,73.2,8.1,73.2z"/>
	<path class="st0" d="M56.5,32.3l0-0.2c-2-5.9-7.5-9.9-13.8-9.9c-6.3,0-11.9,4-13.8,10.1c-0.5,1.4-0.7,2.9-0.7,4.5
		c0,3.7,1.4,7.3,4,10c0.2,0.2,0.6,0.4,1,0c0.1-0.1,0.2-0.3,0.2-0.5c0-0.2-0.1-0.4-0.2-0.5c-2.3-2.5-3.6-5.7-3.6-9
		c0-1.4,0.2-2.8,0.6-4.1c1.8-5.4,6.8-9.1,12.5-9.1c5.7,0,10.8,3.7,12.5,9.1c0.4,1.3,0.6,2.6,0.6,4c0,3.4-1.3,6.7-3.7,9.1
		c-0.1,0.1-0.2,0.3-0.2,0.5c0,0.2,0.1,0.4,0.2,0.5c0.2,0.2,0.6,0.4,1,0c2.6-2.7,4-6.3,4-10.1c0-1.5-0.2-2.9-0.6-4.3L56.5,32.3z"/>
</g>
</svg>
