<?xml version="1.0" encoding="utf-8"?>
<!-- Generator: Adobe Illustrator 23.0.1, SVG Export Plug-In . SVG Version: 6.00 Build 0)  -->
<svg version="1.1" id="Layer_1" xmlns="http://www.w3.org/2000/svg" xmlns:xlink="http://www.w3.org/1999/xlink" x="0px" y="0px"
	 viewBox="0 0 84 84" style="enable-background:new 0 0 84 84;" xml:space="preserve">
<style type="text/css">
	.st0{fill:#FFFFFF;}
</style>
<g>
	<g>
		<path class="st0" d="M42.99,45.84c-0.16-0.03-0.32-0.04-0.48-0.02c-1.6-0.18-2.81-1.52-2.81-3.11c0-0.76-0.63-1.38-1.4-1.38
			c-0.77,0-1.4,0.62-1.4,1.38c0,2.65,1.81,4.97,4.4,5.68v1.38c0,0.76,0.63,1.38,1.4,1.38c0.77,0,1.4-0.62,1.4-1.38v-1.29
			c3-0.62,5.03-3.37,4.72-6.36c-0.32-3-2.88-5.28-5.94-5.28c-1.75,0-3.18-1.4-3.18-3.13c0-1.73,1.42-3.13,3.18-3.13
			s3.18,1.4,3.18,3.13c0,0.76,0.63,1.38,1.4,1.38s1.4-0.62,1.4-1.38c0-2.78-1.99-5.19-4.75-5.76V26.7c0-0.76-0.63-1.38-1.4-1.38
			c-0.77,0-1.4,0.62-1.4,1.38v1.34c-2.89,0.78-4.75,3.54-4.35,6.46c0.4,2.92,2.93,5.1,5.92,5.1c1.73,0,3.14,1.36,3.17,3.07
			C46.08,44.37,44.72,45.78,42.99,45.84z M42.87,58.3c11.21,0,20.29-8.95,20.29-19.98c0-11.03-9.08-19.98-20.29-19.98
			c-11.2,0.01-20.28,8.95-20.29,19.98C22.58,49.36,31.67,58.3,42.87,58.3z M42.87,21.1c9.66,0,17.49,7.71,17.49,17.22
			c0,9.51-7.83,17.22-17.49,17.22c-9.66,0-17.49-7.71-17.49-17.22C25.39,28.81,33.22,21.11,42.87,21.1z M79.4,64.5
			c-1.85-3.24-5.96-4.47-9.33-2.8L59.1,66.8c-1.51-2.77-4.42-4.54-7.61-4.62L41.37,61.9c-1.6-0.05-3.17-0.44-4.6-1.17l-1.03-0.53
			c-5.27-2.71-11.56-2.7-16.82,0.02l0.06-2.3c0.02-0.76-0.59-1.39-1.36-1.42l-11.1-0.3c-0.77-0.02-1.42,0.58-1.44,1.34L4.42,81.52
			c-0.02,0.76,0.59,1.39,1.36,1.42l11.1,0.3h0.04c0.76,0,1.38-0.59,1.4-1.34l0.03-1.15l2.88-1.52c1.13-0.6,2.45-0.74,3.69-0.4
			l17.21,4.76c0.03,0.01,0.06,0.02,0.09,0.02c1.24,0.26,2.51,0.38,3.78,0.38c2.69,0,5.35-0.57,7.8-1.68
			c0.06-0.03,0.12-0.06,0.17-0.09l24.96-15.9C79.56,65.94,79.76,65.13,79.4,64.5z M15.56,80.45l-8.3-0.23L7.85,59l8.3,0.22
			L15.56,80.45z M52.55,79.86c-3.04,1.35-6.43,1.72-9.7,1.07l-17.17-4.75c-1.93-0.54-4-0.31-5.77,0.62l-1.47,0.78l0.39-14.11
			c4.67-3.06,10.65-3.37,15.63-0.82l1.03,0.53c1.8,0.92,3.78,1.42,5.81,1.48l10.12,0.27c2.84,0.08,5.26,2.07,5.83,4.82l-15.07-0.41
			c-0.77-0.02-1.42,0.58-1.44,1.34c-0.02,0.76,0.59,1.39,1.36,1.42l16.63,0.45h0.04c0.76,0,1.38-0.59,1.4-1.34
			c0.02-0.6-0.03-1.2-0.14-1.79l11.24-5.23c0.01-0.01,0.02-0.01,0.03-0.02c1.6-0.79,3.52-0.53,4.83,0.67L52.55,79.86z M42.87,15.84
			c0.77,0,1.4-0.62,1.4-1.38V1.38c0-0.76-0.63-1.38-1.4-1.38c-0.77,0-1.4,0.62-1.4,1.38v13.09C41.47,15.23,42.1,15.84,42.87,15.84z
			 M53.37,15.84c0.77,0,1.4-0.62,1.4-1.38v-6.2c0-0.76-0.63-1.38-1.4-1.38c-0.77,0-1.4,0.62-1.4,1.38v6.2
			C51.97,15.23,52.6,15.84,53.37,15.84z M32.38,15.84c0.77,0,1.4-0.62,1.4-1.38v-6.2c0-0.76-0.63-1.38-1.4-1.38
			c-0.77,0-1.4,0.62-1.4,1.38v6.2C30.98,15.23,31.61,15.84,32.38,15.84z"/>
	</g>
</g>
</svg>
