<?xml version="1.0" encoding="utf-8"?>
<!-- Generator: Adobe Illustrator 23.0.1, SVG Export Plug-In . SVG Version: 6.00 Build 0)  -->
<svg version="1.1" id="Layer_1" xmlns="http://www.w3.org/2000/svg" xmlns:xlink="http://www.w3.org/1999/xlink" x="0px" y="0px"
	 viewBox="0 0 84 84" style="enable-background:new 0 0 84 84;" xml:space="preserve">
<style type="text/css">
	.st0{fill:#FFFFFF;}
</style>
<g>
	<g>
		<path class="st0" d="M79.79,33.63c-0.06-0.71-0.67-1.26-1.39-1.26h-7v-4.13c0-5.32-4.39-9.63-9.8-9.63c-5.41,0-9.8,4.31-9.8,9.63
			v4.13h-4.2V8.98c0-3.8-3.14-6.87-7-6.88H7c-3.86,0-7,3.08-7,6.88v66.04c0,3.8,3.14,6.87,7,6.88h75.6c0.39,0,0.77-0.16,1.03-0.45
			c0.26-0.28,0.4-0.67,0.36-1.05L79.79,33.63z M7,4.85h33.6c1.78,0,3.36,1.1,3.96,2.75H3.04C3.64,5.96,5.22,4.86,7,4.85z
			 M40.6,79.14H7c-1.78,0-3.36-1.1-3.96-2.75h41.52C43.96,78.04,42.38,79.14,40.6,79.14z M44.8,73.64h-42V10.36h42V73.64z
			 M54.6,28.24c0-3.8,3.13-6.88,7-6.88c3.87,0,7,3.08,7,6.88v4.13h-14V28.24z M46.2,79.14c0.91-1.19,1.41-2.64,1.4-4.13v-39.9h4.2
			v5.5c0,0.76,0.63,1.38,1.4,1.38c0.77,0,1.4-0.62,1.4-1.38v-5.5h14v5.5c0,0.76,0.63,1.38,1.4,1.38c0.77,0,1.4-0.62,1.4-1.38v-5.5
			h5.72l3.95,44.02H46.2z M53.2,44.75c-0.77,0-1.4,0.62-1.4,1.38c0,0.76,0.63,1.38,1.4,1.38c0.77,0,1.4-0.62,1.4-1.38
			C54.6,45.37,53.97,44.75,53.2,44.75z M70,44.75c-0.77,0-1.4,0.62-1.4,1.38c0,0.76,0.63,1.38,1.4,1.38c0.77,0,1.4-0.62,1.4-1.38
			C71.4,45.37,70.77,44.75,70,44.75z M32.2,50.25H9.8c-2.32,0-4.2,1.85-4.2,4.13c0,2.28,1.88,4.13,4.2,4.13H35
			c0.77,0,1.4-0.62,1.4-1.38c0-0.76-0.63-1.38-1.4-1.38h-1.64c0.34-0.94,0.32-1.97-0.06-2.9c1.73-0.46,2.96-1.95,3.09-3.7
			c0.12-1.75-0.9-3.39-2.55-4.08l2.51-12.36l1.05-4.48h3.19c0.77,0,1.4-0.62,1.4-1.38c0-0.76-0.63-1.38-1.4-1.38h-4.2
			c-0.6,0-1.14,0.38-1.33,0.94l-1.08,4.56H30.8c0-5.32-4.39-9.63-9.8-9.63c-5.41,0-9.8,4.31-9.8,9.63H7c-0.42,0-0.82,0.18-1.08,0.5
			c-0.27,0.32-0.37,0.74-0.29,1.14l2.8,13.76c0.13,0.64,0.71,1.11,1.37,1.11h22.4c0.77,0,1.4,0.62,1.4,1.38
			C33.6,49.64,32.97,50.25,32.2,50.25z M9.8,55.76c-0.57,0-1.08-0.34-1.29-0.85c-0.22-0.51-0.1-1.11,0.3-1.5
			c0.4-0.39,1-0.51,1.53-0.3c0.52,0.21,0.86,0.71,0.86,1.27C11.2,55.14,10.57,55.76,9.8,55.76z M25.44,55.76H13.76
			c0.32-0.89,0.32-1.86,0-2.75h11.68C25.12,53.9,25.12,54.87,25.44,55.76z M29.4,55.76c-0.57,0-1.08-0.34-1.29-0.85
			c-0.22-0.51-0.1-1.11,0.3-1.5c0.4-0.39,1-0.51,1.53-0.3c0.52,0.21,0.86,0.71,0.86,1.27C30.8,55.14,30.17,55.76,29.4,55.76z
			 M9.55,37.87l-0.84-4.13h2.9c0.31,1.01,0.79,1.97,1.41,2.83l0.13,1.3H9.55z M10.95,44.75l-0.84-4.13h3.33l0.42,4.13H10.95z
			 M19.6,44.75h-2.93l-0.42-4.13h3.35V44.75z M25.33,44.75H22.4v-4.13h3.35L25.33,44.75z M21,37.87c-2.83,0-5.38-1.68-6.47-4.25
			c-1.08-2.57-0.48-5.53,1.52-7.5c2-1.97,5.01-2.56,7.63-1.49C26.29,25.7,28,28.21,28,30.99C28,34.79,24.86,37.87,21,37.87z
			 M31.05,44.75h-2.91l0.42-4.13h3.33L31.05,44.75z M32.45,37.87h-3.61l0.13-1.3c0.63-0.86,1.1-1.82,1.41-2.83h2.9L32.45,37.87z
			 M22.81,28.65L19.6,31.8l-0.41-0.4c-0.55-0.54-1.43-0.54-1.98,0c-0.55,0.54-0.55,1.41,0,1.95l1.4,1.38
			c0.26,0.26,0.62,0.4,0.99,0.4c0.37,0,0.73-0.15,0.99-0.4l4.2-4.13c0.55-0.54,0.55-1.41,0-1.95
			C24.24,28.11,23.36,28.11,22.81,28.65z M40.6,55.76c-0.77,0-1.4,0.62-1.4,1.38c0,0.76,0.63,1.38,1.4,1.38
			c0.77,0,1.4-0.62,1.4-1.38C42,56.37,41.37,55.76,40.6,55.76z"/>
	</g>
</g>
</svg>
