<?xml version="1.0" encoding="utf-8"?>
<!-- Generator: Adobe Illustrator 23.0.1, SVG Export Plug-In . SVG Version: 6.00 Build 0)  -->
<svg version="1.1" id="Layer_1" xmlns="http://www.w3.org/2000/svg" xmlns:xlink="http://www.w3.org/1999/xlink" x="0px" y="0px"
	 viewBox="0 0 84 84" style="enable-background:new 0 0 84 84;" xml:space="preserve">
<style type="text/css">
	.st0{fill:#FFFFFF;}
</style>
<g>
	<g>
		<path class="st0" d="M83.68,35.5l-7-8.4c-0.27-0.32-0.66-0.5-1.08-0.5h-5.88l-4.25-5.1c-0.27-0.32-0.66-0.5-1.07-0.5H53.2V7
			c0-3.86-3.14-7-7-7H7C3.14,0,0,3.14,0,7v70c0,3.86,3.14,7,7,7h39.2c3.86,0,7-3.14,7-7V65.8h29.4c0.77,0,1.4-0.63,1.4-1.4v-28
			C84,36.07,83.89,35.76,83.68,35.5z M16.8,2.8h19.6v1.4c0,0.77-0.63,1.4-1.4,1.4H18.2c-0.77,0-1.4-0.63-1.4-1.4V2.8z M50.4,77
			c0,2.32-1.88,4.2-4.2,4.2H7c-2.32,0-4.2-1.88-4.2-4.2V7c0-2.32,1.88-4.2,4.2-4.2h7v1.4c0,2.32,1.88,4.2,4.2,4.2H35
			c2.32,0,4.2-1.88,4.2-4.2V2.8h7c2.32,0,4.2,1.88,4.2,4.2v14h-9.8c-0.77,0-1.4,0.63-1.4,1.4v36.4c0,0.77,0.63,1.4,1.4,1.4h9.8V77z
			 M42,57.4V23.8h21.74L70,31.31V57.4H42z M81.2,63h-28v-2.8h22.4c0.77,0,1.4-0.63,1.4-1.4V42c0-0.77-0.63-1.4-1.4-1.4h-2.8v-9.8
			c0-0.33-0.11-0.64-0.32-0.9l-0.42-0.5h2.89l6.26,7.51V63z M72.8,57.4v-14h1.4v14H72.8z M64.4,35H47.6c-0.77,0-1.4,0.63-1.4,1.4
			v16.8c0,0.77,0.63,1.4,1.4,1.4h16.8c0.77,0,1.4-0.63,1.4-1.4V36.4C65.8,35.63,65.17,35,64.4,35z M49,37.8h2.8v2.8H49V37.8z
			 M51.77,51.8H49V49h2.77V51.8z M57.4,51.8h-2.83V49h0.03h2.8V51.8z M57.4,46.2H49v-2.8h4.2c0.77,0,1.4-0.63,1.4-1.4v-4.2h2.8V46.2
			z M63,51.8h-2.8V49H63V51.8z M63,46.2h-2.8v-8.4H63V46.2z M19.6,33.6c0-0.77-0.63-1.4-1.4-1.4H7c-0.77,0-1.4,0.63-1.4,1.4v2.8
			c0,0.47,0.23,0.9,0.62,1.16l4.2,2.8c0.23,0.15,0.5,0.24,0.78,0.24v7H14v-7c0.28,0,0.55-0.08,0.78-0.24l4.2-2.8
			c0.39-0.26,0.62-0.7,0.62-1.16V33.6z M16.8,35.65l-3.22,2.15h-1.96L8.4,35.65V35h8.4V35.65z M19.6,47.6h2.8V42h-2.8V47.6z
			 M25.2,47.6H28v-8.4h-2.8V47.6z M30.8,47.6h2.8V36.4h-2.8V47.6z"/>
	</g>
</g>
</svg>
