<?xml version="1.0" encoding="utf-8"?>
<!-- Generator: Adobe Illustrator 23.0.1, SVG Export Plug-In . SVG Version: 6.00 Build 0)  -->
<svg version="1.1" id="Layer_1" xmlns="http://www.w3.org/2000/svg" xmlns:xlink="http://www.w3.org/1999/xlink" x="0px" y="0px"
	 viewBox="0 0 82 82" style="enable-background:new 0 0 82 82;" xml:space="preserve">
<style type="text/css">
	.st0{fill:#DB0011;}
</style>
<g>
	<path d="M30.6,9.4c-4.8,0-8.6,3.9-8.6,8.6s3.9,8.6,8.6,8.6s8.6-3.9,8.6-8.6S35.4,9.4,30.6,9.4z M30.6,25.1c-3.9,0-7.1-3.2-7.1-7.1
		c0-3.9,3.2-7.1,7.1-7.1s7.1,3.2,7.1,7.1C37.7,22,34.5,25.1,30.6,25.1z"/>
	<path d="M9.2,49.5c-4.8,0-8.6,3.9-8.6,8.6s3.9,8.6,8.6,8.6s8.6-3.9,8.6-8.6S14,49.5,9.2,49.5z M9.2,65.2c-3.9,0-7.1-3.2-7.1-7.1
		S5.3,51,9.2,51s7.1,3.2,7.1,7.1S13.1,65.2,9.2,65.2z"/>
	<path d="M76.6,47.9c-0.9,0-1.8,0.3-2.6,0.8l-0.6,0.4l-0.1-0.7c-0.2-2.5-2.3-4.4-4.8-4.4c-1.2,0-2.4,0.5-3.3,1.3l-0.4,0.4l-0.3-0.5
		c-0.9-1.4-2.4-2.3-4.1-2.3c-0.9,0-1.8,0.3-2.6,0.7l-0.7,0.4V33.4c0-2.6-2.2-4.8-4.8-4.8c-1.3,0-2.5,0.5-3.4,1.4
		c-0.9,0.9-1.4,2.1-1.4,3.4v17.3l-0.8-1c-0.7-0.9-1.6-1.5-2.7-1.8c-0.5-0.1-1-0.2-1.5-0.2c-0.9,0-1.8,0.2-2.6,0.7
		c-1.3,0.7-2.2,1.8-2.6,3.2c-0.4,1.4-0.2,2.8,0.5,4.1c1.1,1.9,1.1,6.5,1.1,6.6c0,0.2,0,4.8,1.8,9.5c2.3,6.4,6.6,9.7,12.4,9.7h12
		c4.9,0,9.2-2.4,12.2-6.8c0.2-0.3,0.2-0.8-0.2-1.1c-0.3-0.2-0.8-0.2-1.1,0.2c-1.9,2.8-5.4,6.1-11,6.1h-12c-5.1,0-8.8-2.9-11-8.7
		c-1.6-4.4-1.7-9-1.7-9c0-0.5,0-5.1-1.3-7.3c-0.5-0.9-0.6-1.9-0.3-2.9c0.3-1,0.9-1.8,1.8-2.3c0.9-0.5,1.9-0.6,2.9-0.3
		c1,0.3,1.8,0.9,2.3,1.8c1.2,2.2,1.5,3.4,1.6,3.8l0,7.2c0,0.4,0.3,0.8,0.8,0.8c0.4,0,0.8-0.3,0.8-0.8V33.4c0-0.9,0.3-1.7,1-2.3
		c0.6-0.6,1.4-1,2.3-1c1.8,0,3.3,1.5,3.3,3.2v21c0,0.4,0.3,0.8,0.8,0.8c0.4,0,0.8-0.3,0.8-0.8v-6.8c0-1.8,1.5-3.3,3.3-3.3
		c1.8,0,3.3,1.5,3.3,3.3v5.5c0,0.4,0.3,0.8,0.8,0.8c0.4,0,0.8-0.3,0.8-0.8v-4.4c0-1.8,1.5-3.3,3.3-3.3s3.3,1.5,3.3,3.3v6.1
		c0,0.4,0.3,0.8,0.8,0.8s0.8-0.3,0.8-0.8v-2.1c0-1.8,1.5-3.3,3.3-3.3c1.8,0,3.3,1.5,3.3,3.3V62c0,2.9-0.6,5.8-1.8,8.5
		c-0.2,0.4,0,0.8,0.4,1c0.4,0.2,0.8,0,1-0.4c1.3-2.9,1.9-6.1,1.9-9.1v-9.3C81.4,50.1,79.2,47.9,76.6,47.9z"/>
	<path class="st0" d="M45.3,32c0-3.9,3.2-7.1,7.1-7.1s7.1,3.2,7.1,7.1c0,1-0.2,1.9-0.6,2.8c-0.1,0.2-0.1,0.4,0,0.6
		c0.1,0.2,0.2,0.3,0.4,0.4c0.4,0.2,0.9,0,1-0.4c0.4-1.1,0.7-2.2,0.7-3.4c0-2.9-1.4-5.5-3.8-7.1L57,24.7V5.2c0-2.6-2.1-4.7-4.7-4.7
		c-2.6,0-4.7,2.1-4.7,4.7v19.6l-0.2,0.1c-2.3,1.6-3.7,4.3-3.7,7.1c0,1.2,0.2,2.3,0.7,3.4c0.1,0.2,0.2,0.3,0.4,0.4
		c0.2,0.1,0.4,0.1,0.6,0c0.2-0.1,0.3-0.2,0.4-0.4c0.1-0.2,0.1-0.4,0-0.6C45.5,33.9,45.3,32.9,45.3,32z M49.3,5.2
		c0-1.7,1.4-3.1,3.1-3.1s3.1,1.4,3.1,3.1v18.8l-0.6-0.2c-1.6-0.5-3.4-0.5-5.1,0L49.3,24V5.2z"/>
	<path d="M26.8,7.9c0.4,0,0.8-0.3,0.8-0.8v-2C27.6,3.4,29,2,30.7,2s3.1,1.4,3.1,3.1v2.1c0,0.4,0.3,0.8,0.8,0.8s0.8-0.3,0.8-0.8V5.2
		c0-2.6-2.1-4.7-4.7-4.7s-4.7,2.1-4.7,4.7v2C26.1,7.6,26.4,7.9,26.8,7.9z"/>
	<path d="M34.6,64.8c-0.4,0-0.8,0.3-0.8,0.8v11.3c0,0.8-0.3,1.6-0.9,2.2c-0.6,0.6-1.4,0.9-2.2,0.9c-1.7,0-3.1-1.4-3.1-3.1V29
		c0-0.4-0.3-0.8-0.8-0.8s-0.8,0.3-0.8,0.8v47.9c0,2.6,2.1,4.7,4.7,4.7c1.2,0,2.4-0.5,3.3-1.4c0.9-0.9,1.4-2.1,1.4-3.3V65.5
		C35.4,65.1,35.1,64.8,34.6,64.8z"/>
	<path d="M34.6,28.1c-0.4,0-0.8,0.3-0.8,0.8v32.6c0,0.4,0.3,0.8,0.8,0.8s0.8-0.3,0.8-0.8V28.9C35.4,28.4,35.1,28.1,34.6,28.1z"/>
	<path d="M5.3,10.5c0.4,0,0.8-0.3,0.8-0.8V5.2C6.1,3.4,7.5,2,9.2,2s3.1,1.4,3.1,3.1v42c0,0.4,0.3,0.8,0.8,0.8c0.4,0,0.8-0.3,0.8-0.8
		v-42c0-2.6-2.1-4.7-4.7-4.7S4.6,2.6,4.6,5.2v4.6C4.6,10.2,4.9,10.5,5.3,10.5z"/>
	<path d="M5.3,48c0.4,0,0.8-0.3,0.8-0.8V13.8c0-0.4-0.3-0.8-0.8-0.8s-0.8,0.3-0.8,0.8v33.4C4.6,47.6,4.9,48,5.3,48z"/>
	<path d="M13.1,68.2c-0.4,0-0.8,0.3-0.8,0.8v7.9c0,0.8-0.3,1.6-0.9,2.2c-0.6,0.6-1.4,0.9-2.2,0.9c-1.7,0-3.1-1.4-3.1-3.1v-7.9
		c0-0.4-0.3-0.8-0.8-0.8s-0.8,0.3-0.8,0.8v7.9c0,2.6,2.1,4.7,4.7,4.7c1.2,0,2.4-0.5,3.3-1.4c0.9-0.9,1.4-2.1,1.4-3.3V69
		C13.9,68.5,13.5,68.2,13.1,68.2z"/>
</g>
</svg>
