<?xml version="1.0" encoding="utf-8"?>
<!-- Generator: Adobe Illustrator 23.0.1, SVG Export Plug-In . SVG Version: 6.00 Build 0)  -->
<svg version="1.1" id="Layer_1" xmlns="http://www.w3.org/2000/svg" xmlns:xlink="http://www.w3.org/1999/xlink" x="0px" y="0px"
	 viewBox="0 0 82 82" style="enable-background:new 0 0 82 82;" xml:space="preserve">
<style type="text/css">
	.st0{fill:#DB0011;}
</style>
<g>
	<path class="st0" d="M69.7,19.7H41c-0.4,0-0.8,0.4-0.8,0.8v8.2c0,0.4,0.4,0.8,0.8,0.8h28.7c0.4,0,0.8-0.4,0.8-0.8v-8.2
		C70.6,20,70.2,19.7,69.7,19.7z M68.9,27.9H41.8v-6.6h27.1V27.9z"/>
	<path d="M68.4,36.1h-5.5c-0.4,0-0.8,0.4-0.8,0.8v5.5c0,0.4,0.4,0.8,0.8,0.8h5.5c0.4,0,0.8-0.4,0.8-0.8v-5.5
		C69.2,36.4,68.8,36.1,68.4,36.1z M67.6,41.6h-3.9v-3.9h3.9V41.6z"/>
	<path d="M57.4,36.1h-5.5c-0.4,0-0.8,0.4-0.8,0.8v5.5c0,0.4,0.4,0.8,0.8,0.8h5.5c0.4,0,0.8-0.4,0.8-0.8v-5.5
		C58.2,36.4,57.9,36.1,57.4,36.1z M56.6,41.6h-3.9v-3.9h3.9V41.6z"/>
	<path d="M68.4,47h-5.5c-0.4,0-0.8,0.4-0.8,0.8v5.5c0,0.4,0.4,0.8,0.8,0.8h5.5c0.4,0,0.8-0.4,0.8-0.8v-5.5
		C69.2,47.4,68.8,47,68.4,47z M67.6,52.5h-3.9v-3.9h3.9V52.5z"/>
	<path d="M57.4,47h-5.5c-0.4,0-0.8,0.4-0.8,0.8v5.5c0,0.4,0.4,0.8,0.8,0.8h5.5c0.4,0,0.8-0.4,0.8-0.8v-5.5
		C58.2,47.4,57.9,47,57.4,47z M56.6,52.5h-3.9v-3.9h3.9V52.5z"/>
	<path class="st0" d="M68.4,58h-5.5c-0.4,0-0.8,0.4-0.8,0.8v5.5c0,0.4,0.4,0.8,0.8,0.8h5.5c0.4,0,0.8-0.4,0.8-0.8v-5.5
		C69.2,58.3,68.8,58,68.4,58z M67.6,63.5h-3.9v-3.9h3.9V63.5z"/>
	<path d="M57.4,58h-5.5c-0.4,0-0.8,0.4-0.8,0.8v5.5c0,0.4,0.4,0.8,0.8,0.8h5.5c0.4,0,0.8-0.4,0.8-0.8v-5.5
		C58.2,58.3,57.9,58,57.4,58z M56.6,63.5h-3.9v-3.9h3.9V63.5z"/>
	<path d="M46.5,36.1H41c-0.4,0-0.8,0.4-0.8,0.8v5.5c0,0.4,0.4,0.8,0.8,0.8h5.5c0.4,0,0.8-0.4,0.8-0.8v-5.5
		C47.3,36.4,46.9,36.1,46.5,36.1z M45.7,41.6h-3.9v-3.9h3.9V41.6z"/>
	<path d="M46.5,47H41c-0.4,0-0.8,0.4-0.8,0.8v5.5c0,0.4,0.4,0.8,0.8,0.8h5.5c0.4,0,0.8-0.4,0.8-0.8v-5.5C47.3,47.4,46.9,47,46.5,47z
		 M45.7,52.5h-3.9v-3.9h3.9V52.5z"/>
	<path d="M46.5,58H41c-0.4,0-0.8,0.4-0.8,0.8v5.5c0,0.4,0.4,0.8,0.8,0.8h5.5c0.4,0,0.8-0.4,0.8-0.8v-5.5C47.3,58.3,46.9,58,46.5,58z
		 M45.7,63.5h-3.9v-3.9h3.9V63.5z"/>
	<path d="M75.2,8.7H29.5V4c0-2-1.6-3.5-3.5-3.5H12.3c-2,0-3.5,1.6-3.5,3.5v4.6l-2,0c-3.4,0.1-6.2,2.9-6.2,6.3v60.3
		c0,3.5,2.8,6.3,6.3,6.3h68.4c3.5,0,6.3-2.8,6.3-6.3V15C81.5,11.5,78.7,8.7,75.2,8.7z M10.3,4c0-1.1,0.9-1.9,1.9-1.9h13.7
		C27,2.1,27.9,3,27.9,4v14.7l-2.5,2.5c-0.2,0.2-0.2,0.4-0.2,0.6v24.6c0,0.2,0.1,0.4,0.2,0.6l2.5,2.5v14.7c0,1.1-0.9,1.9-1.9,1.9
		H12.3c-1.1,0-1.9-0.9-1.9-1.9V49.5l2.5-2.5c0.2-0.2,0.2-0.4,0.2-0.6V21.8c0-0.2-0.1-0.4-0.2-0.6l-2.5-2.5V4z M79.9,75.2
		c0,2.6-2.1,4.7-4.7,4.7H6.8c-2.6,0-4.7-2.1-4.7-4.7v-1.1L3,74.7C4.1,75.6,5.4,76,6.8,76h68.4c1.4,0,2.7-0.5,3.8-1.3l0.9-0.7V75.2z
		 M79.9,69.7c0,2.6-2.1,4.7-4.7,4.7H6.8c-2.6,0-4.7-2.1-4.7-4.7V14.9c0-2.5,2.1-4.6,4.6-4.7l2,0v8.9c0,0.2,0.1,0.4,0.2,0.6l2.5,2.5
		v24l-2.5,2.5c-0.2,0.2-0.2,0.4-0.2,0.6v15.1c0,2,1.6,3.5,3.5,3.5h13.7c2,0,3.5-1.6,3.5-3.5V49.2c0-0.2-0.1-0.4-0.2-0.6l-2.5-2.5
		v-24l2.5-2.5c0.2-0.2,0.2-0.4,0.2-0.6v-8.8h45.7c2.6,0,4.7,2.1,4.7,4.7V69.7z"/>
</g>
</svg>
