<?xml version="1.0" encoding="utf-8"?>
<!-- Generator: Adobe Illustrator 23.0.1, SVG Export Plug-In . SVG Version: 6.00 Build 0)  -->
<svg version="1.1" id="Layer_1" xmlns="http://www.w3.org/2000/svg" xmlns:xlink="http://www.w3.org/1999/xlink" x="0px" y="0px"
	 viewBox="0 0 102 94" style="enable-background:new 0 0 102 94;" xml:space="preserve">
<style type="text/css">
	.st0{display:none;}
	.st1{display:inline;fill:#FFFFFF;}
	.st2{display:inline;}
	.st3{fill:#FFFFFF;}
</style>
<g class="st0">
	<rect x="76" y="0" class="st1" width="26" height="94"/>
	<rect y="0" class="st1" width="26" height="94"/>
	<g class="st2">
		<polygon class="st3" points="26.01,0 8.23,13.62 36.9,51.06 51.01,32.64 		"/>
		<polygon class="st3" points="93.79,13.62 76,0 51.01,32.64 65.11,51.06 		"/>
		<polygon class="st3" points="51.01,32.64 36.9,51.06 51.01,69.48 65.11,51.06 		"/>
	</g>
</g>
<polygon class="st3" points="76,0 76,0 51.01,32.64 26.01,0 26,0.01 26,0 0,0 0,94 26,94 26,36.83 36.9,51.06 51.01,69.48 
	65.11,51.06 76,36.84 76,94 102,94 102,0 "/>
</svg>
