<?xml version="1.0" encoding="utf-8"?>
<!-- Generator: Adobe Illustrator 23.0.1, SVG Export Plug-In . SVG Version: 6.00 Build 0)  -->
<svg version="1.1" id="Layer_1" xmlns="http://www.w3.org/2000/svg" xmlns:xlink="http://www.w3.org/1999/xlink" x="0px" y="0px"
	 viewBox="0 0 82 82" style="enable-background:new 0 0 82 82;" xml:space="preserve">
<style type="text/css">
	.st0{fill:#DB0011;}
</style>
<g>
	<path d="M74,48.7H63.6V1.1c0-0.3-0.3-0.6-0.6-0.6H19c-0.3,0-0.6,0.3-0.6,0.6v47.6H8c-0.2,0-0.3,0.1-0.4,0.2
		c-0.1,0.1-0.2,0.3-0.2,0.4c0,0.2,0.1,0.3,0.2,0.4l33,31.6c0.2,0.2,0.6,0.2,0.8,0l33-31.6c0.1-0.1,0.2-0.3,0.2-0.4
		C74.6,48.9,74.4,48.7,74,48.7z M41,80.1L9.5,49.9H19c0.3,0,0.6-0.3,0.6-0.6V1.7h42.8v47.6c0,0.3,0.3,0.6,0.6,0.6h9.5L41,80.1z"/>
	<path class="st0" d="M48.4,25.1c-0.3-3.3-2.8-6-6.2-6.6l-0.6-0.1v-2.8h-1.2v2.8l-0.6,0.1c-2,0.3-3.7,1.4-4.8,3.1
		c-1.1,1.6-1.6,3.6-1.2,5.6c0.6,3.6,3.7,6.2,7.3,6.2c3.5,0,6.3,2.8,6.3,6.3c0,3.5-2.8,6.3-6.3,6.3c-3.2,0-5.8-2.4-6.2-5.5h-1.2
		c0.3,3.3,2.8,6,6.2,6.6l0.6,0.1v2.8h1.2v-2.8l0.6-0.1c4.1-0.7,6.8-4.6,6.1-8.7c-0.6-3.6-3.7-6.2-7.3-6.2c-3.5,0-6.3-2.8-6.3-6.3
		c0-3.5,2.8-6.3,6.3-6.3c3.2,0,5.8,2.4,6.2,5.5H48.4z"/>
	<rect x="23.9" y="6" class="st0" width="1.2" height="1.2"/>
	<rect x="29.4" y="6" class="st0" width="1.2" height="1.2"/>
	<rect x="34.9" y="6" class="st0" width="1.2" height="1.2"/>
	<rect x="40.4" y="6" class="st0" width="1.2" height="1.2"/>
	<rect x="45.9" y="6" class="st0" width="1.2" height="1.2"/>
	<rect x="51.4" y="6" class="st0" width="1.2" height="1.2"/>
	<rect x="56.9" y="6" class="st0" width="1.2" height="1.2"/>
</g>
</svg>
