<?xml version="1.0" encoding="utf-8"?>
<!-- Generator: Adobe Illustrator 23.0.1, SVG Export Plug-In . SVG Version: 6.00 Build 0)  -->
<svg version="1.1" id="Layer_1" xmlns="http://www.w3.org/2000/svg" xmlns:xlink="http://www.w3.org/1999/xlink" x="0px" y="0px"
	 viewBox="0 0 82 82" style="enable-background:new 0 0 82 82;" xml:space="preserve">
<style type="text/css">
	.st0{fill:#FFFFFF;}
</style>
<g>
	<path class="st0" d="M58,33.2v2.6h3.9v6.5c0,11.5-9.4,20.9-20.9,20.9s-20.9-9.4-20.9-20.9v-6.5H24v-2.6h-6.5v9.1
		c0,12.5,9.8,22.7,22.2,23.4V71h-3.9c-5.1,0-9.1,4.1-9.1,9.1v1.3h28.7v-1.3c0-5.1-4-9.1-9.1-9.1h-3.9v-5.4
		c12.4-0.7,22.2-11,22.2-23.4v-9.1H58z M52.6,78.9H29.4c0.7-3,3.3-5.2,6.4-5.2h10.5C49.4,73.7,52,75.9,52.6,78.9z"/>
	<path class="st0" d="M41,58c8.6,0,15.7-7.1,15.7-15.7V16.2c0-8.6-7.1-15.7-15.7-15.7S25.3,7.6,25.3,16.2v26.1
		C25.3,50.9,32.4,58,41,58z M34.5,4.9v3.4h2.6V3.8c0.8-0.3,1.7-0.4,2.6-0.5v6.4h2.6V3.2c0.9,0.1,1.8,0.3,2.6,0.5v4.6h2.6V4.9
		c3.9,2.2,6.5,6.5,6.5,11.2v11.8H27.9V16.2C27.9,11.3,30.5,7.2,34.5,4.9z M27.9,30.5h26.1v11.8c0,7.2-5.9,13.1-13.1,13.1
		s-13.1-5.9-13.1-13.1V30.5z"/>
</g>
</svg>
