<svg width="36" height="46" viewBox="0 0 36 46" xmlns="http://www.w3.org/2000/svg"><title>ICON-protection</title><path d="M32.3 21.2h-1.8v-9.6C30.5 5.3 25.4.2 19.1.2h-1.8C11 .2 5.9 5.3 5.9 11.6v9.6H4.1c-1.9 0-3.5 1.6-3.5 3.5v17.5c0 1.9 1.6 3.5 3.5 3.5h28.1c1.9 0 3.5-1.6 3.5-3.5V24.7c.1-2-1.5-3.5-3.4-3.5zM7.7 11.5c0-5.3 4.3-9.6 9.6-9.6h1.8c5.3 0 9.6 4.3 9.6 9.6v9.6h-3.5v-9.6c0-3.4-2.8-6.1-6.1-6.1h-1.8c-3.4 0-6.1 2.8-6.1 6.1v9.6H7.7v-9.6zm15.8 0v9.6H13v-9.6c0-2.4 2-4.4 4.4-4.4h1.8c2.4 0 4.3 2 4.3 4.4zm10.6 30.7c0 1-.8 1.8-1.8 1.8H4.2c-1 0-1.8-.8-1.8-1.8V24.7c0-1 .8-1.8 1.8-1.8h28.1c1 0 1.8.8 1.8 1.8v17.5zm-15.8-14c-2.4 0-4.4 2-4.4 4.4 0 1.4.7 2.7 1.8 3.5v1.8c0 1.5 1.2 2.6 2.6 2.6 1.5 0 2.6-1.2 2.6-2.6V36c1.1-.8 1.8-2.1 1.8-3.5 0-2.4-2-4.3-4.4-4.3zm1.3 6.6c-.3.2-.4.4-.4.8v2.2c0 .5-.4.9-.9.9s-.9-.4-.9-.9v-2.2c0-.3-.2-.6-.4-.8-.8-.5-1.3-1.3-1.3-2.3 0-1.5 1.2-2.6 2.6-2.6 1.5 0 2.6 1.2 2.6 2.6 0 1-.5 1.8-1.3 2.3z" fill="#FFF"/></svg>