<?xml version="1.0" encoding="utf-8"?>
<!-- Generator: Adobe Illustrator 23.0.1, SVG Export Plug-In . SVG Version: 6.00 Build 0)  -->
<svg version="1.1" id="Layer_1" xmlns="http://www.w3.org/2000/svg" xmlns:xlink="http://www.w3.org/1999/xlink" x="0px" y="0px"
	 viewBox="0 0 82 82" style="enable-background:new 0 0 82 82;" xml:space="preserve">
<style type="text/css">
	.st0{fill:#DB0011;}
</style>
<g>
	<path d="M81.5,11.5c0-6-4.9-11-11-11c-6,0-11,4.9-11,11c0,2.4,0.8,4.7,2.2,6.6l0.5,0.7L49.3,31.9l-0.7-0.6
		c-2.2-1.7-4.8-2.6-7.5-2.6c-2.1,0-4.1,0.5-5.9,1.5l-0.8,0.4l-8.1-11.3l0.5-0.6c0.9-1,1.4-2.4,1.4-3.8c0-3.2-2.6-5.8-5.8-5.8
		c-3.2,0-5.8,2.6-5.8,5.8c0,3.2,2.6,5.8,5.8,5.8c0.7,0,1.5-0.1,2.1-0.4l0.8-0.3l8.1,11.3L32.7,32c-2.5,2.3-4,5.6-4,9
		c0,6.8,5.5,12.3,12.3,12.3c2.8,0,5.4-0.9,7.5-2.6l0.7-0.6l10.2,10.2L59,61c-1,1.4-1.5,3.1-1.5,4.8c0,4.6,3.8,8.4,8.4,8.4
		s8.4-3.8,8.4-8.4s-3.8-8.4-8.4-8.4c-1.7,0-3.4,0.5-4.8,1.5l-0.7,0.5L50.1,49.3l0.6-0.7c1.7-2.2,2.6-4.8,2.6-7.5
		c0-2.8-0.9-5.4-2.6-7.5l-0.6-0.7l13.1-13.1l0.7,0.6c1.9,1.5,4.2,2.2,6.6,2.2C76.6,22.4,81.5,17.5,81.5,11.5z M22.4,19.6
		c-2.5,0-4.6-2.1-4.6-4.6c0-2.5,2.1-4.6,4.6-4.6S27,12.5,27,15C27,17.6,24.9,19.6,22.4,19.6z M60.5,61l0.2-0.2c0,0,0.1,0,0.1-0.1
		l0.2-0.3c1.3-1.2,3.1-1.9,4.8-1.9c4,0,7.2,3.2,7.2,7.2S69.8,73,65.8,73s-7.2-3.2-7.2-7.2C58.6,64,59.3,62.3,60.5,61z M52.1,41
		c0,6.1-5,11.1-11.1,11.1s-11.1-5-11.1-11.1c0-6.1,5-11.1,11.1-11.1S52.1,34.9,52.1,41z M63.8,18.6l-0.3-0.3
		c-1.8-1.8-2.7-4.2-2.7-6.8c0-5.4,4.4-9.8,9.8-9.8c5.4,0,9.8,4.4,9.8,9.8c0,5.4-4.4,9.8-9.8,9.8C68,21.3,65.6,20.3,63.8,18.6z"/>
	<path class="st0" d="M41,36.5c-2.5,0-4.5,2-4.5,4.5c0,2.5,2,4.5,4.5,4.5c2.5,0,4.5-2,4.5-4.5C45.5,38.5,43.5,36.5,41,36.5z
		 M41,44.3c-1.8,0-3.3-1.5-3.3-3.3c0-1.8,1.5-3.3,3.3-3.3s3.3,1.5,3.3,3.3C44.3,42.8,42.8,44.3,41,44.3z"/>
	<path class="st0" d="M22,59.2l-4.3,4.3L17,62.9c-1.8-1.3-3.9-2.1-6.2-2.1c-5.7,0-10.3,4.6-10.3,10.3s4.6,10.3,10.3,10.3
		s10.3-4.6,10.3-10.3c0-2.2-0.7-4.4-2.1-6.2l-0.5-0.7l4.3-4.3c0.2-0.2,0.2-0.6,0-0.8C22.6,58.9,22.2,58.9,22,59.2z M20,71.2
		c0,5-4.1,9.2-9.2,9.2c-5,0-9.2-4.1-9.2-9.2c0-5,4.1-9.2,9.2-9.2C15.9,62,20,66.1,20,71.2z"/>
	<path class="st0" d="M27.6,53.8c-0.1,0-0.3,0.1-0.4,0.2c-0.2,0.2-0.2,0.6,0,0.8c0.2,0.2,0.6,0.2,0.8,0c0.2-0.2,0.2-0.6,0-0.8
		C27.9,53.9,27.7,53.8,27.6,53.8z"/>
</g>
</svg>
