<?xml version="1.0" encoding="utf-8"?>
<!-- Generator: Adobe Illustrator 23.0.1, SVG Export Plug-In . SVG Version: 6.00 Build 0)  -->
<svg version="1.1" id="Layer_1" xmlns="http://www.w3.org/2000/svg" xmlns:xlink="http://www.w3.org/1999/xlink" x="0px" y="0px"
	 viewBox="0 0 82 82" style="enable-background:new 0 0 82 82;" xml:space="preserve">
<style type="text/css">
	.st0{fill:#FFFFFF;}
</style>
<g>
	<path class="st0" d="M73.4,21.6l-1.8,1.8c4.7,4.7,7.3,11,7.3,17.6s-2.6,12.9-7.3,17.6l1.8,1.8c5.2-5.2,8.1-12.1,8.1-19.5
		C81.5,33.7,78.6,26.8,73.4,21.6z"/>
	<path class="st0" d="M67.9,27.1L66,28.9c3.2,3.2,5,7.5,5,12.1s-1.8,8.8-5,12.1l1.8,1.8c3.7-3.7,5.8-8.7,5.8-13.9
		S71.6,30.8,67.9,27.1z"/>
	<path class="st0" d="M55.4,29.3V4.7c0.2-1.7-2.1-5.1-5.7-3.5L17.1,24H0.5v34h16.6l32.5,22.7c3.4,1.7,5.8-1.1,5.8-3.4V52.7
		C61.2,52,65.7,47,65.7,41S61.2,30,55.4,29.3z M3.1,26.6h13.1v28.7H3.1V26.6z M52.8,77.3c0,0.7-0.7,1.6-1.8,1.2L18.8,56V26L50.9,3.5
		c1.1-0.5,1.8,0.5,1.8,1.2L52.8,77.3L52.8,77.3z M55.4,50V32c4.4,0.7,7.7,4.5,7.7,9S59.8,49.3,55.4,50z"/>
	<rect x="8.3" y="34.5" class="st0" width="2.6" height="2.6"/>
	<rect x="8.3" y="39.7" class="st0" width="2.6" height="2.6"/>
	<rect x="8.3" y="44.9" class="st0" width="2.6" height="2.6"/>
</g>
</svg>
