<?xml version="1.0" encoding="utf-8"?>
<!-- Generator: Adobe Illustrator 23.0.1, SVG Export Plug-In . SVG Version: 6.00 Build 0)  -->
<svg version="1.1" id="Layer_1" xmlns="http://www.w3.org/2000/svg" xmlns:xlink="http://www.w3.org/1999/xlink" x="0px" y="0px"
	 viewBox="0 0 82 82" style="enable-background:new 0 0 82 82;" xml:space="preserve">
<style type="text/css">
	.st0{fill:#DB0011;}
</style>
<g>
	<rect x="26.1" y="70.4" width="1.5" height="1.5"/>
	<rect x="64.4" y="70.4" width="1.5" height="1.5"/>
	<rect y="66.3" width="5.6" height="1.5"/>
	<rect x="2.7" y="60.8" width="2.8" height="1.5"/>
	<rect x="4.1" y="55.3" width="1.5" height="1.5"/>
	<path d="M63.8,35.8c-0.6-0.7-1.5-1-2.5-1c0,0,0,0,0,0H47.4c-1.2,0-2.1,0.9-2.1,2.1v18.5H13.1c-1.2,0-2.1,0.9-2.1,2.1v11
		c0,1.9,1.6,3.5,3.5,3.5h3.4l0.1,0.5c0.3,1.9,1.2,3.8,2.6,5.1l1.1,1.1H0v1.5h65.2c4.4,0,8.2-3.3,8.9-7.7l0.1-0.5h3.4
		c1.9,0,3.5-1.6,3.5-3.5V54.5c0-0.9-0.4-1.8-1-2.5L63.8,35.8z M26.8,78.7c-4.1,0-7.5-3.4-7.5-7.5v0c0-3,1.8-5.8,4.6-6.9
		c2.8-1.2,6-0.5,8.2,1.6c2.1,2.2,2.8,5.4,1.6,8.2C32.5,76.8,29.8,78.7,26.8,78.7z M31.9,78.7l1.1-1.1c1.4-1.4,2.3-3.2,2.6-5.1
		l0.1-0.5h20.5l0.1,0.5c0.3,1.9,1.2,3.8,2.6,5.1l1.1,1.1H31.9z M65.2,78.7L65.2,78.7c-3,0-5.8-1.8-6.9-4.6c-1.2-2.8-0.5-6,1.6-8.2
		c2.2-2.2,5.4-2.8,8.2-1.6c2.8,1.2,4.6,3.9,4.6,6.9C72.7,75.3,69.3,78.7,65.2,78.7z M79.5,68.4c0,0.5-0.2,1-0.6,1.4
		c-0.4,0.4-0.9,0.6-1.4,0.6h-3.4L74,69.9c-0.6-4.4-4.4-7.7-8.9-7.7s-8.2,3.3-8.9,7.7l-0.1,0.5H35.7l-0.1-0.5
		c-0.6-4.4-4.4-7.7-8.9-7.7s-8.2,3.3-8.9,7.7l-0.1,0.5h-3.4c-1.1,0-2-0.9-2-2V56.8H46c0.4,0,0.7-0.3,0.7-0.7V36.3h14.6c0,0,0,0,0,0
		c0.5,0,1,0.2,1.4,0.6l3.4,3.4h-7.8c-1.2,0-2.1,0.9-2.1,2.1v12.3c0,1.2,0.9,2.1,2.1,2.1h21.2V68.4z M79.5,55.3H57.7V41.7h9.9
		l11.3,11.3c0.4,0.4,0.6,0.9,0.6,1.4V55.3z"/>
	<rect x="52.1" y="60.8" width="4.2" height="1.5"/>
	<rect x="5.5" y="7.4" width="7" height="1.5"/>
	<rect y="7.4" width="1.5" height="1.5"/>
	<rect x="9.6" y="1.9" width="4.2" height="1.5"/>
	<rect x="4.1" y="1.9" width="1.5" height="1.5"/>
	<rect x="54.8" y="23.8" width="9.7" height="1.5"/>
	<rect x="49.4" y="23.8" width="1.5" height="1.5"/>
	<path d="M25,51.2c0.3,0.2,0.6,0.2,0.9,0c0.7-0.5,16.7-12.7,16.7-25.3c0-9.5-7.7-17.2-17.2-17.2c-9.5,0-17.2,7.7-17.2,17.2
		C8.2,38.5,24.3,50.7,25,51.2z M25.4,10.2L25.4,10.2c8.7,0,15.7,7.1,15.7,15.7c0,10.2-11.7,20.5-15.3,23.4l-0.4,0.3L25,49.3
		C21.4,46.4,9.7,36.1,9.7,25.9C9.7,17.3,16.8,10.2,25.4,10.2z"/>
	<path class="st0" d="M25.4,33.5c3.1,0,5.8-1.8,7-4.7c1.2-2.8,0.5-6.1-1.6-8.3c-1.5-1.5-3.4-2.2-5.4-2.2c-1,0-2,0.2-2.9,0.6
		c-2.8,1.2-4.7,3.9-4.7,7C17.8,30.1,21.2,33.5,25.4,33.5z M25.4,19.8c2.5,0,4.7,1.5,5.7,3.8c1,2.3,0.4,4.9-1.3,6.7
		C28.6,31.4,27,32,25.4,32c-0.8,0-1.6-0.2-2.3-0.5c-2.3-0.9-3.8-3.2-3.8-5.7C19.3,22.5,22,19.8,25.4,19.8z"/>
	<rect x="52.1" y="18.3" width="4.2" height="1.5"/>
	<rect x="46.6" y="18.3" width="1.5" height="1.5"/>
</g>
</svg>
